<?xml version="1.0" encoding="UTF-8" standalone="no"?>
<!-- Created with Inkscape (http://www.inkscape.org/) -->

<svg
   xmlns:dc="http://purl.org/dc/elements/1.1/"
   xmlns:cc="http://creativecommons.org/ns#"
   xmlns:rdf="http://www.w3.org/1999/02/22-rdf-syntax-ns#"
   xmlns:svg="http://www.w3.org/2000/svg"
   xmlns="http://www.w3.org/2000/svg"
   xmlns:sodipodi="http://sodipodi.sourceforge.net/DTD/sodipodi-0.dtd"
   xmlns:inkscape="http://www.inkscape.org/namespaces/inkscape"
   width="1088"
   height="750"
   viewBox="0 0 1088 750.00001"
   id="svg4761"
   version="1.1"
   inkscape:version="0.91 r13725"
   sodipodi:docname="pan_1-2-d.svg">
  <defs
     id="defs4763">
    <clipPath
       clipPathUnits="userSpaceOnUse"
       id="clipPath3590">
      <rect
         style="opacity:1;fill:#56a04a;fill-opacity:1;stroke:none;stroke-width:0.2;stroke-miterlimit:4;stroke-dasharray:none;stroke-opacity:1"
         id="rect3592"
         width="1450"
         height="1000"
         x="1450"
         y="-1947.6377" />
    </clipPath>
    <clipPath
       clipPathUnits="userSpaceOnUse"
       id="clipPath4900">
      <rect
         style="opacity:1;fill:#0000ff;fill-opacity:1;stroke:none;stroke-width:0.2;stroke-miterlimit:4;stroke-dasharray:none;stroke-opacity:1"
         id="rect4902"
         width="1088"
         height="750"
         x="0"
         y="2.1316282e-14" />
    </clipPath>
  </defs>
  <sodipodi:namedview
     id="base"
     pagecolor="#ffffff"
     bordercolor="#666666"
     borderopacity="1.0"
     inkscape:pageopacity="0.0"
     inkscape:pageshadow="2"
     inkscape:zoom="0.7"
     inkscape:cx="355.48438"
     inkscape:cy="423.72415"
     inkscape:document-units="px"
     inkscape:current-layer="layer5"
     showgrid="false"
     units="px"
     inkscape:window-width="1920"
     inkscape:window-height="957"
     inkscape:window-x="0"
     inkscape:window-y="0"
     inkscape:window-maximized="1" />
  <metadata
     id="metadata4766">
    <rdf:RDF>
      <cc:Work
         rdf:about="">
        <dc:format>image/svg+xml</dc:format>
        <dc:type
           rdf:resource="http://purl.org/dc/dcmitype/StillImage" />
        <dc:title></dc:title>
      </cc:Work>
    </rdf:RDF>
  </metadata>
  <g
     inkscape:groupmode="layer"
     id="layer5"
     inkscape:label="Calque 2"
     style="display:inline">
    <g
       id="g4892"
       clip-path="url(#clipPath4900)">
      <rect
         y="0"
         x="0"
         height="750"
         width="1088"
         id="rect4844"
         style="opacity:1;fill:#0000ff;fill-opacity:1;stroke:none;stroke-width:0.2;stroke-miterlimit:4;stroke-dasharray:none;stroke-opacity:1" />
      <path
         sodipodi:nodetypes="csssssccscccc"
         inkscape:connector-curvature="0"
         id="path4865"
         d="m -5.3571429,146.25 c 11.4285715,5.71429 17.3214279,5.89286 30.1785709,9.46429 12.388088,3.44113 99.749092,27.35234 140.892862,34.82142 23.20889,4.21325 75.53571,14.46429 144.46428,20.17857 43.0886,3.57211 68.4333,3.20402 119.82143,0.71429 92.14286,-4.46428 124.10714,-13.75 164.46428,-20 55.05795,-8.52667 142.67857,-19.46429 217.32143,-30.89285 71.82345,-10.76914 123.92218,-17.14233 183.03572,-26.07143 C 1030.5357,128.75 1067.8572,122.5 1080.7143,122.5 c 12.8571,0 11.4286,-0.35715 11.4286,-0.35715 l 2.1428,635.00001 -1103.5206513,0 z"
         style="fill:#935e20;fill-opacity:1;fill-rule:evenodd;stroke:none;stroke-width:1px;stroke-linecap:butt;stroke-linejoin:miter;stroke-opacity:1" />
      <path
         sodipodi:nodetypes="csssssssssccc"
         inkscape:connector-curvature="0"
         id="path4867"
         d="m -5.0507627,313.6141 c 17.1725937,9.09137 27.8385487,10.59859 59.5989997,23.23351 47.682023,18.96882 72.832513,27.97789 108.086323,44.44671 24.99723,11.67746 62.49639,35.22227 82.83251,52.52793 11.53954,9.81993 31.84519,41.65085 33.33503,61.61931 1.35493,18.1603 -10.99964,44.33467 -17.23387,53.53808 -8.95748,13.22368 -27.31436,31.00836 -51.27267,50.74223 -18.20255,14.99298 -50.41711,46.00978 -62.62946,63.04787 -10.1582,14.17221 -22.27411,34.73206 -33.33503,55.96629 -5.04783,9.69058 -12.60153,24.13162 -12.60153,30.19254 0,6.06092 -0.65301,5.1628 -0.65301,5.1628 L -5.5707074,752.84663 Z"
         style="fill:#777777;fill-opacity:1;fill-rule:evenodd;stroke:none;stroke-width:1px;stroke-linecap:butt;stroke-linejoin:miter;stroke-opacity:1" />
      <path
         sodipodi:nodetypes="csssssscsssssssccc"
         inkscape:connector-curvature="0"
         id="path4880"
         d="m 495.56648,754.50979 c -15.74402,-15.62147 -1.53071,-1.55087 -15.74402,-15.62147 -35.57071,-35.21356 -70.69836,-57.19872 -128.58524,-130.07508 -17.9696,-22.62272 -31.05598,-48.24796 -39.98768,-88.47501 -2.43357,-10.96041 -3.69705,-49.27882 13.40682,-76.38291 20.10121,-31.85389 41.27104,-55.87164 84.25057,-78.03737 76.33437,-39.36773 109.64795,-41.00834 128.84085,-45.04895 19.1929,-4.04061 37.02902,-7.2549 37.02902,-7.2549 0,0 9.09137,13.13198 28.28427,26.26397 19.1929,13.13198 39.97717,28.02865 66.83287,41.70161 26.76479,13.62667 74.52721,28.82523 105.26072,29.89666 23.21941,0.80948 55.05824,1.1214 84.61823,-6.83647 31.7542,-8.54858 63.45577,-26.13091 84.84229,-36.47753 22.4955,-10.88314 57.41252,-28.53901 84.89302,-39.92641 22.9677,-9.51739 49.937,-16.0504 57.0081,-14.97897 6.9912,1.05932 3.6011,4.39775 3.6011,4.39775 l 0.5918,435.47727 z"
         style="fill:#000000;fill-opacity:1;fill-rule:evenodd;stroke:none;stroke-width:1px;stroke-linecap:butt;stroke-linejoin:miter;stroke-opacity:1" />
    </g>
  </g>
</svg>
