<?xml version="1.0" encoding="UTF-8" standalone="no"?>
<!-- Created with Inkscape (http://www.inkscape.org/) -->

<svg
   xmlns:dc="http://purl.org/dc/elements/1.1/"
   xmlns:cc="http://creativecommons.org/ns#"
   xmlns:rdf="http://www.w3.org/1999/02/22-rdf-syntax-ns#"
   xmlns:svg="http://www.w3.org/2000/svg"
   xmlns="http://www.w3.org/2000/svg"
   xmlns:sodipodi="http://sodipodi.sourceforge.net/DTD/sodipodi-0.dtd"
   xmlns:inkscape="http://www.inkscape.org/namespaces/inkscape"
   width="1088"
   height="750"
   viewBox="0 0 1088 750.00001"
   id="svg5144"
   version="1.1"
   inkscape:version="0.91 r13725"
   sodipodi:docname="pan_3-1-d.svg">
  <defs
     id="defs5146">
    <clipPath
       id="clipPath3607"
       clipPathUnits="userSpaceOnUse">
      <rect
         y="52.362202"
         x="0"
         height="1000"
         width="1450"
         id="rect3609"
         style="opacity:1;fill:#56a04a;fill-opacity:1;stroke:none;stroke-width:0.2;stroke-miterlimit:4;stroke-dasharray:none;stroke-opacity:1" />
    </clipPath>
    <clipPath
       clipPathUnits="userSpaceOnUse"
       id="clipPath5255">
      <rect
         style="opacity:1;fill:#0000ff;fill-opacity:1;stroke:none;stroke-width:0.2;stroke-miterlimit:4;stroke-dasharray:none;stroke-opacity:1"
         id="rect5257"
         width="1088"
         height="750"
         x="0"
         y="-8.5265128e-14" />
    </clipPath>
  </defs>
  <sodipodi:namedview
     id="base"
     pagecolor="#ffffff"
     bordercolor="#666666"
     borderopacity="1.0"
     inkscape:pageopacity="0.0"
     inkscape:pageshadow="2"
     inkscape:zoom="0.24748737"
     inkscape:cx="1094.8013"
     inkscape:cy="464.87687"
     inkscape:document-units="px"
     inkscape:current-layer="layer8"
     showgrid="false"
     units="px"
     inkscape:window-width="1920"
     inkscape:window-height="957"
     inkscape:window-x="0"
     inkscape:window-y="0"
     inkscape:window-maximized="1" />
  <metadata
     id="metadata5149">
    <rdf:RDF>
      <cc:Work
         rdf:about="">
        <dc:format>image/svg+xml</dc:format>
        <dc:type
           rdf:resource="http://purl.org/dc/dcmitype/StillImage" />
        <dc:title></dc:title>
      </cc:Work>
    </rdf:RDF>
  </metadata>
  <g
     inkscape:groupmode="layer"
     id="layer8"
     inkscape:label="Calque 2">
    <g
       id="g5248"
       clip-path="url(#clipPath5255)">
      <rect
         y="7.1054274e-15"
         x="0"
         height="750"
         width="1088"
         id="rect5242"
         style="opacity:1;fill:#0000ff;fill-opacity:1;stroke:none;stroke-width:0.2;stroke-miterlimit:4;stroke-dasharray:none;stroke-opacity:1" />
      <path
         sodipodi:nodetypes="csssszssssccc"
         inkscape:connector-curvature="0"
         id="path5244"
         d="m 254.05336,-6.09918 c 26.26397,46.467017 30.80966,48.487323 51.01271,82.832509 20.20305,34.345191 34.34519,54.043161 46.46702,89.398501 11.44317,33.37592 14.14213,94.95434 14.14213,121.2183 0,26.26397 -2.0203,82.83251 2.02031,113.13709 4.04061,30.30458 9.58482,57.70485 39.90102,77.27667 30.31619,19.57183 99.50003,32.82996 150.00765,39.90102 51.9436,7.2721 187.88838,33.84012 223.24371,48.99241 25.2573,10.82455 18.01333,8.40108 52.52794,12.12183 28.38089,3.05952 163.13964,6.06091 189.40365,5.55583 26.3366,-0.50648 77.2767,0 77.2767,0 0.1644,-145.47858 1.434,-419.12191 1.0101,-595.989999 z"
         style="fill:#935e20;fill-opacity:1;fill-rule:evenodd;stroke:none;stroke-width:1px;stroke-linecap:butt;stroke-linejoin:miter;stroke-opacity:1" />
      <path
         sodipodi:nodetypes="csssssccc"
         inkscape:connector-curvature="0"
         id="path5246"
         d="m 640.3392,-4.8625804 c 5.12998,16.8903194 14.7012,34.0779174 28.15301,51.5077944 25.46921,33.001155 71.11168,68.658086 90,81.926216 28.87176,20.28101 89.13299,59.92494 130.07922,81.42857 43.66266,22.93021 123.65207,58.16793 150.08667,69.24239 15.4223,6.46095 38.5714,13.61475 48.5714,16.30601 9.7545,2.62518 8.4699,0.9235 8.4699,0.9235 L 1092.914,-4.5085168 Z"
         style="fill:#1e6312;fill-opacity:1;fill-rule:evenodd;stroke:none;stroke-width:1px;stroke-linecap:butt;stroke-linejoin:miter;stroke-opacity:1" />
    </g>
  </g>
</svg>
