<?xml version="1.0" encoding="UTF-8" standalone="no"?>
<!-- Created with Inkscape (http://www.inkscape.org/) -->

<svg
   xmlns:dc="http://purl.org/dc/elements/1.1/"
   xmlns:cc="http://creativecommons.org/ns#"
   xmlns:rdf="http://www.w3.org/1999/02/22-rdf-syntax-ns#"
   xmlns:svg="http://www.w3.org/2000/svg"
   xmlns="http://www.w3.org/2000/svg"
   xmlns:sodipodi="http://sodipodi.sourceforge.net/DTD/sodipodi-0.dtd"
   xmlns:inkscape="http://www.inkscape.org/namespaces/inkscape"
   width="4350"
   height="3000"
   viewBox="0 0 4350 3000"
   id="svg16745"
   version="1.1"
   inkscape:version="0.91 r13725"
   sodipodi:docname="pan_2-1_a.svg">
  <defs
     id="defs16747">
    <clipPath
       clipPathUnits="userSpaceOnUse"
       id="clipPath4554">
      <rect
         style="opacity:1;fill:#f40c4a;fill-opacity:1;stroke:none;stroke-width:0.2;stroke-miterlimit:4;stroke-dasharray:none;stroke-opacity:1"
         id="rect4556"
         width="1450"
         height="1000"
         x="0"
         y="-947.63782" />
    </clipPath>
  </defs>
  <sodipodi:namedview
     id="base"
     pagecolor="#ffffff"
     bordercolor="#666666"
     borderopacity="1.0"
     inkscape:pageopacity="0.0"
     inkscape:pageshadow="2"
     inkscape:zoom="0.24748737"
     inkscape:cx="1060.7143"
     inkscape:cy="862.85714"
     inkscape:document-units="px"
     inkscape:current-layer="layer1"
     showgrid="false"
     units="px"
     inkscape:window-width="1920"
     inkscape:window-height="959"
     inkscape:window-x="0"
     inkscape:window-y="0"
     inkscape:window-maximized="1" />
  <metadata
     id="metadata16750">
    <rdf:RDF>
      <cc:Work
         rdf:about="">
        <dc:format>image/svg+xml</dc:format>
        <dc:type
           rdf:resource="http://purl.org/dc/dcmitype/StillImage" />
        <dc:title></dc:title>
      </cc:Work>
    </rdf:RDF>
  </metadata>
  <g
     inkscape:label="Calque 1"
     inkscape:groupmode="layer"
     id="layer1"
     transform="translate(0,1947.6378)">
    <g
       id="g3578"
       clip-path="url(#clipPath4554)">
      <rect
         y="-1947.6379"
         x="-1.1953164e-08"
         height="3000"
         width="4350"
         id="rect3911"
         style="opacity:1;fill:#30a9be;fill-opacity:1;stroke:none;stroke-width:0.2;stroke-miterlimit:4;stroke-dasharray:none;stroke-opacity:1" />
      <path
         inkscape:connector-curvature="0"
         id="path4713"
         d="M 1083.8937,821.73427 C 615.18288,663.21796 478.47558,812.40981 488.24038,486.05283 498.00519,159.69574 400.35711,234.29167 253.885,-138.68773 107.41288,-511.66713 -87.883269,-819.37517 68.353653,-977.89142 224.59058,-1136.4077 361.29788,-1276.275 458.94596,-1518.7116 c 97.64808,-242.4367 263.64981,-326.3569 605.41804,-307.708 341.7684,18.649 615.1829,214.4632 1074.1289,149.1917 458.9459,-65.2713 1933.4319,-298.3834 1992.0207,-167.8406 58.5889,130.5428 205.0611,904.47503 136.7073,1025.69333 -68.3536,121.21834 -224.5906,615.41609 -156.2369,829.879178 68.3536,214.463202 371.0628,708.660952 58.5889,792.581342 -312.4738,83.92027 -947.1864,-130.54282 -1230.3659,-111.89389 -283.1793,18.64892 -595.6532,83.92039 -996.0102,121.21835 -400.3572,37.29796 -859.3031,9.32446 -859.3031,9.32446 z"
         style="fill:#88b950;fill-opacity:1;fill-rule:evenodd;stroke:none;stroke-width:1px;stroke-linecap:butt;stroke-linejoin:miter;stroke-opacity:1" />
      <path
         sodipodi:nodetypes="zsssssz"
         inkscape:connector-curvature="0"
         id="path4715"
         d="m 419.88673,-856.67311 c -78.11845,-177.16519 117.17769,-438.25079 253.88499,-587.44249 136.70732,-149.1919 302.70905,-261.0857 556.59408,-158.5163 253.8849,102.5693 810.479,214.4632 498.0051,456.8997 -312.4738,242.43667 -58.5888,680.6875 -410.1218,540.82022 -351.53314,-139.86727 -332.00353,-270.4101 -498.00526,-214.46319 -166.00173,55.94691 -322.23865,139.86729 -400.35711,-37.29794 z"
         style="fill:#777777;fill-opacity:1;fill-rule:evenodd;stroke:none;stroke-width:1px;stroke-linecap:butt;stroke-linejoin:miter;stroke-opacity:1" />
      <path
         sodipodi:nodetypes="zssssz"
         inkscape:connector-curvature="0"
         id="path4717"
         d="M 1425.6619,439.43041 C 1191.3065,360.17226 527.29961,10.504008 1035.0696,-129.36327 1542.8396,-269.23054 1523.31,-800.7262 1904.1375,-539.64063 2284.965,-278.555 2958.7367,-185.31015 2685.3221,141.04682 2411.9074,467.4038 2021.5475,691.41343 1816.2542,495.3773 1660.0173,346.18554 1660.0173,518.68855 1425.6619,439.43041 Z"
         style="fill:#295b06;fill-opacity:1;fill-rule:evenodd;stroke:none;stroke-width:1px;stroke-linecap:butt;stroke-linejoin:miter;stroke-opacity:1" />
      <path
         sodipodi:nodetypes="sssssss"
         inkscape:connector-curvature="0"
         id="path4719"
         d="m 2216.6113,-1528.036 c -155.3197,11.4089 -576.1237,158.5162 -205.0609,494.1977 371.0627,335.68147 605.4181,624.74048 849.5383,559.46913 244.1201,-65.27146 527.2996,-167.84077 576.1236,-447.57533 48.824,-279.7346 224.5906,-484.8733 -166.0018,-559.4691 -390.5923,-74.5959 -361.2978,-74.5959 -605.418,46.6224 -244.1203,121.2183 -449.1812,-93.2448 -449.1812,-93.2448 z"
         style="fill:#000000;fill-opacity:1;fill-rule:evenodd;stroke:none;stroke-width:1px;stroke-linecap:butt;stroke-linejoin:miter;stroke-opacity:1" />
      <path
         inkscape:connector-curvature="0"
         id="path4721"
         d="M 3691.0973,448.75487 C 3349.329,411.45691 2870.8534,700.51592 2997.796,271.58963 c 126.9424,-428.92628 273.4145,-848.52822 585.8884,-773.9323 312.4738,74.59593 302.709,391.62844 439.4163,652.71395 136.7074,261.08563 205.061,550.14464 39.0593,512.84668 -166.0018,-37.29785 -371.0627,-214.46309 -371.0627,-214.46309 z"
         style="fill:#56a04a;fill-opacity:1;fill-rule:evenodd;stroke:none;stroke-width:1px;stroke-linecap:butt;stroke-linejoin:miter;stroke-opacity:1" />
    </g>
  </g>
</svg>
