<?xml version="1.0" encoding="UTF-8" standalone="no"?>
<!-- Created with Inkscape (http://www.inkscape.org/) -->

<svg
   xmlns:dc="http://purl.org/dc/elements/1.1/"
   xmlns:cc="http://creativecommons.org/ns#"
   xmlns:rdf="http://www.w3.org/1999/02/22-rdf-syntax-ns#"
   xmlns:svg="http://www.w3.org/2000/svg"
   xmlns="http://www.w3.org/2000/svg"
   xmlns:sodipodi="http://sodipodi.sourceforge.net/DTD/sodipodi-0.dtd"
   xmlns:inkscape="http://www.inkscape.org/namespaces/inkscape"
   width="1800"
   height="1300"
   viewBox="0 0 1800 1300"
   id="svg4503"
   version="1.1"
   inkscape:version="0.91 r13725"
   sodipodi:docname="carte_vectorisee_1800x1300.svg">
  <defs
     id="defs4505">
    <inkscape:perspective
       sodipodi:type="inkscape:persp3d"
       inkscape:vp_x="0 : 260 : 1"
       inkscape:vp_y="0 : 999.99998 : 0"
       inkscape:vp_z="720 : 260 : 1"
       inkscape:persp3d-origin="360 : 173.33334 : 1"
       id="perspective4734" />
  </defs>
  <sodipodi:namedview
     id="base"
     pagecolor="#ffffff"
     bordercolor="#666666"
     borderopacity="1.0"
     inkscape:pageopacity="0.0"
     inkscape:pageshadow="2"
     inkscape:zoom="0.7"
     inkscape:cx="403.68503"
     inkscape:cy="476.79618"
     inkscape:document-units="px"
     inkscape:current-layer="layer13"
     showgrid="false"
     units="px"
     inkscape:window-width="1920"
     inkscape:window-height="957"
     inkscape:window-x="0"
     inkscape:window-y="0"
     inkscape:window-maximized="1" />
  <metadata
     id="metadata4508">
    <rdf:RDF>
      <cc:Work
         rdf:about="">
        <dc:format>image/svg+xml</dc:format>
        <dc:type
           rdf:resource="http://purl.org/dc/dcmitype/StillImage" />
        <dc:title></dc:title>
      </cc:Work>
    </rdf:RDF>
  </metadata>
  <g
     inkscape:groupmode="layer"
     id="layer14"
     inkscape:label="ocean fond"
     transform="translate(0,780)">
    <rect
       style="opacity:1;fill:#30a9be;fill-opacity:1;stroke:none;stroke-width:6;stroke-miterlimit:4;stroke-dasharray:none;stroke-opacity:1"
       id="rect4889"
       width="1800"
       height="1300"
       x="3.3007814e-07"
       y="-780" />
  </g>
  <g
     inkscape:groupmode="layer"
     id="layer2"
     inkscape:label="littoral"
     style="display:inline"
     transform="translate(0,780)">
    <path
       style="fill:#f9ba00;fill-opacity:1;fill-rule:evenodd;stroke:none;stroke-width:1px;stroke-linecap:butt;stroke-linejoin:miter;stroke-opacity:1"
       d="M 103.57143,441.42857 C 56.860755,442.9856 60.714287,355.7143 64.285715,148.57145 67.974097,-65.354877 57.142857,-108.57143 128.57143,-169.28573 200,-230 127.74321,-245.4311 64.285715,-365.71428 c -35.544173,-67.3737 -7.142858,-317.85715 117.857145,-317.85715 124.99999,0 207.14286,-117.85714 346.42856,-42.85714 139.28573,75 157.14285,92.85714 378.57143,57.14285 221.42855,-35.71428 169.62185,-7.52401 414.28575,-25 250,-17.85714 175,100 278.5714,110.71429 103.5714,10.71429 103.5714,157.14285 110.7143,271.42858 7.1428,114.2857 103.5714,282.142848 0,335.714273 -103.5715,53.571425 -157.1429,46.428575 -125,78.571427 32.1428,32.14285 -32.1429,35.7143 39.2857,121.42857 C 1696.4286,309.2857 1828.5714,520 1707.1428,480.71427 1585.7143,441.42855 1625,473.57145 1510.7143,455.7143 c -114.2857,-17.85715 -114.2857,-242.85718 -175,-196.4286 -60.7143,46.42857 46.4285,217.85717 -42.8572,217.85717 -89.2857,0 -207.1428,14.2857 -299.99995,-14.28575 C 889.65885,431.1038 964.28572,266.42857 928.57142,298.57142 892.85715,330.71427 896.42857,434.28572 792.85715,445 c -103.57143,10.71427 -107.14288,17.85715 -275,14.28572 C 350,455.71427 250,387.85715 207.14286,398.57142 c -42.85715,10.7143 -103.57143,42.85715 -103.57143,42.85715 z"
       id="path4786"
       inkscape:connector-curvature="0"
       sodipodi:nodetypes="sssssssssssssssssssssss" />
  </g>
  <g
     style="display:inline"
     inkscape:label="plaine"
     id="g4828"
     inkscape:groupmode="layer"
     transform="translate(0,780)">
    <path
       style="fill:#88b950;fill-opacity:1;fill-rule:evenodd;stroke:none;stroke-width:1px;stroke-linecap:butt;stroke-linejoin:miter;stroke-opacity:1"
       d="m 433.9795,-691.20117 c -87.85558,8.95493 -163.3297,72.0738 -253.90626,67.91504 -35.92245,10.14612 -47.60559,50.86781 -56.89741,82.43668 -17.95725,60.67307 -22.97038,132.52887 16.8315,186.15132 29.97875,42.533 74.90764,83.38695 77.77587,139.23915 -0.55557,44.7224 -32.69704,81.30585 -66.53808,106.875 -29.84633,37.822028 -22.77179,89.048403 -25.30691,133.886103 2.46143,110.334377 -8.46752,220.803147 -0.7136,331.006477 -2.51691,13.52505 9.35041,1.55662 15.44908,0.62957 45.81242,-19.63502 100.02326,-26.09707 146.46956,-4.81775 93.02447,32.398 191.2588,52.4351 290.12237,48.4282 77.60853,-0.2602 155.81755,-5.09125 231.54298,-21.67655 37.53587,-24.42635 37.2859,-75.55465 64.44822,-108.22755 19.95175,-27.91132 60.5883,-47.16947 92.59278,-27.82225 30.1787,17.16075 40.2873,56.23055 31.94825,88.33495 -1.78775,23.12615 -9.7743,52.06093 8.61325,70.44923 35.0632,19.39315 76.1883,13.55485 114.3897,18.2959 49.3566,1.65267 98.6966,-0.181 147.8857,-2.96388 -7.5886,-54.41792 -24.6826,-113.5833 -0.3027,-166.50877 15.9434,-37.79723 58.3158,-65.20425 99.6484,-54.8926 31.8239,6.39522 54.3758,32.8449 67.4179,61.05777 24.2062,44.3506 31.0495,100.47103 72.3477,133.71275 45.3015,22.40633 96.8914,1.83848 144.4414,13.60715 8.1783,1.27805 16.2988,2.91908 24.3477,4.84988 -35.3736,-75.816 -97.252,-134.86325 -136.9287,-207.97853 -9.3227,-22.55097 -9.8901,-47.50755 -10.1953,-71.43065 -24.827,-34.533922 -10.7784,-90.409747 29.6191,-106.196297 42.0888,-25.2735996 96.3645,-26.7120246 132.4512,-61.826175 13.5924,-27.568325 2.8007,-58.465475 -1.5752,-86.989978 -16.0326,-64.67695 -37.2717,-128.7162 -40.4105,-195.81435 -5.5292,-60.62522 -2.4862,-124.6139 -27.9752,-181.28747 -9.9966,-18.58745 -31.6891,-23.05853 -50.6934,-25.83495 -31.4048,-6.93801 -60.6495,-24.59757 -77.8551,-52.28861 -16.2227,-21.98825 -35.6378,-48.36561 -65.8168,-49.82077 -84.3142,-15.2745 -169.5553,8.32999 -254.4723,2.17936 -94.7697,-1.31801 -189.5094,2.80656 -282.3959,22.5057 -95.25835,15.80893 -197.9798,26.27056 -288.82423,-14.33641 -55.66172,-23.50469 -104.9577,-67.53667 -167.53507,-70.84669 z"
       id="path4830"
       inkscape:connector-curvature="0" />
  </g>
  <g
     inkscape:groupmode="layer"
     id="layer3"
     inkscape:label="desert"
     style="display:inline"
     transform="translate(0,780)">
    <path
       style="fill:#f2f0ca;fill-opacity:1;fill-rule:evenodd;stroke:none;stroke-width:1px;stroke-linecap:butt;stroke-linejoin:miter;stroke-opacity:1"
       d="m 1110.7143,-365.71428 c 64.2857,-7.14287 75,-1.78572 75,-1.78572 39.4439,-8.7653 60.7143,-48.21428 78.5714,-58.92858 17.8571,-10.71427 34.4137,-86.12072 7.1429,-94.64285 0,0 -71.4286,8.92858 -100,-12.5 -28.5715,-21.42857 -29.3812,-58.19927 -76.7858,-28.57143 0,0 -57.1428,8.92858 -26.7857,75.00001 15.8503,34.49775 39.2857,64.2857 14.2857,64.2857 -25,0 -64.2857,3.57142 -57.1428,17.85715 7.1428,14.28572 100,46.42857 85.7143,39.28572 z"
       id="path4856"
       inkscape:connector-curvature="0"
       sodipodi:nodetypes="cssssssssc" />
  </g>
  <g
     inkscape:groupmode="layer"
     id="layer4"
     inkscape:label="montagne"
     transform="translate(0,780)">
    <path
       style="fill:#7e807f;fill-opacity:1;fill-rule:evenodd;stroke:none;stroke-width:1px;stroke-linecap:butt;stroke-linejoin:miter;stroke-opacity:1"
       d="m 1219.6428,-347.85715 c -11.6071,-0.89285 -39.2857,26.78572 -46.4285,-12.5 -6.6701,-36.68538 -32.1429,-60.71428 -14.2857,-67.85713 17.8571,-7.14287 46.4285,-41.07145 60.7142,-35.7143 14.2858,5.35715 26.7858,39.28573 50,39.28573 23.2143,0 57.1429,-1.78573 64.2858,17.85712 7.1428,19.64288 37.5,64.28573 8.9285,67.85715 -28.5714,3.57143 -57.1428,32.14285 -85.7143,23.2143 -28.5714,-8.92857 -25.8928,-31.25002 -37.5,-32.14287 z"
       id="path4859"
       inkscape:connector-curvature="0"
       sodipodi:nodetypes="zsssssssz" />
  </g>
  <g
     inkscape:groupmode="layer"
     id="layer5"
     inkscape:label="colline"
     transform="translate(0,780)">
    <path
       style="fill:#593910;fill-opacity:1;fill-rule:evenodd;stroke:none;stroke-width:1px;stroke-linecap:butt;stroke-linejoin:miter;stroke-opacity:1"
       d="m 1433.9286,-144.2857 c -12.5,-21.42858 -26.7857,-5.35715 -30.3572,-23.2143 -3.5714,-17.85715 18.8328,-17.04708 42.8572,-41.07143 35.7142,-35.7143 30.4534,-19.08875 35.7142,-35.7143 5.2609,-16.62555 -28.5714,-21.42857 -16.0714,-42.85715 12.5,-21.42857 48.2143,-24.99997 73.2143,-19.64285 25,5.35715 57.1429,16.07145 55.3571,44.64288 -1.7857,28.57142 26.7858,55.35712 -3.5714,67.85712 -30.3571,12.5 -23.2143,44.64288 -57.1428,46.42858 -33.9286,1.78572 -66.0715,48.214298 -73.2143,35.7143 -7.1429,-12.5 -26.7857,-32.14285 -26.7857,-32.14285 z"
       id="path4862"
       inkscape:connector-curvature="0"
       sodipodi:nodetypes="csszssssssc" />
  </g>
  <g
     inkscape:groupmode="layer"
     id="layer6"
     inkscape:label="lac"
     transform="translate(0,780)">
    <path
       style="fill:#083d5f;fill-opacity:1;fill-rule:evenodd;stroke:none;stroke-width:1px;stroke-linecap:butt;stroke-linejoin:miter;stroke-opacity:1"
       d="m 964.28572,-251.42858 c 6.61905,8.47238 42.85708,50 3.57143,53.57143 -39.28573,3.57142 -50.579,22.3544 -67.85715,16.07145 0,0 -25,1.7857 -55.35715,12.5 C 814.2857,-158.57143 775,-178.21428 775,-178.21428 c -32.58918,-26.73865 -35.7143,-12.50002 -62.50003,-53.57145 -25.5307,-39.14707 13.04403,-57.61007 25.00003,-87.5 0,0 66.07142,-26.78572 91.07142,-3.57142 25,23.21427 87.5,1.78572 87.5,21.42857 0,19.64288 25.89288,21.42858 48.2143,50 z"
       id="path4865"
       inkscape:connector-curvature="0"
       sodipodi:nodetypes="ssssssssss" />
  </g>
  <g
     inkscape:groupmode="layer"
     id="layer7"
     inkscape:label="steppe"
     transform="translate(0,780)">
    <path
       style="fill:#dfd0b1;fill-opacity:1;fill-rule:evenodd;stroke:none;stroke-width:1px;stroke-linecap:butt;stroke-linejoin:miter;stroke-opacity:1"
       d="m 880.77185,-183.98613 c -1.90923,-11.44905 4.94242,-49.5853 29.94242,-53.15672 25,-3.57143 49.46655,0.8523 62.5,-19.64288 12.69808,-19.9678 32.30693,-30.24882 56.83653,-34.75797 53.4153,-9.8191 128.8778,61.43252 128.8778,75.82942 0,46.42858 -51.4794,41.39638 -65.7651,62.82495 -14.2857,21.42858 19.0115,62.589753 -0.6313,66.161178 -19.6429,3.571425 -121.10363,-5.465475 -142.5322,-5.465475 -21.42858,0 -80.94338,-1.241775 -78.57143,-27.290153 2.37195,-26.04837 69.11348,-4.0375 71.42858,-30.15907 2.54737,-28.7423 -57.3781,-6.1154 -62.0853,-34.34328 z"
       id="path4868"
       inkscape:connector-curvature="0"
       sodipodi:nodetypes="sssssssszss" />
  </g>
  <g
     inkscape:groupmode="layer"
     id="layer8"
     inkscape:label="marais"
     transform="translate(0,780)">
    <path
       style="fill:#20471a;fill-opacity:1;fill-rule:evenodd;stroke:none;stroke-width:1px;stroke-linecap:butt;stroke-linejoin:miter;stroke-opacity:1"
       d="m 441.07142,-87.142852 c 7.14285,32.14285 30.35715,62.5 46.42858,69.64285 16.07142,7.14285 69.64285,0 76.78572,-5.35715 7.14285,-5.357125 -1.78572,-28.571425 12.5,-39.2857 14.2857,-10.7143 75,-17.85715 85.71428,-17.85715 10.71427,0 26.78572,1.785725 26.78572,-10.714275 0,-12.500003 -55.35715,-30.357153 -55.35715,-53.571453 0,-23.21427 -19.64285,-42.85712 -48.2143,-41.07142 -28.57142,1.78572 -80.35712,12.5 -80.35712,32.14287 0,19.64285 -12.5,44.64285 -28.57143,46.42855 -16.07145,1.78573 -35.7143,19.642878 -35.7143,19.642878 z"
       id="path4871"
       inkscape:connector-curvature="0" />
  </g>
  <g
     inkscape:groupmode="layer"
     id="layer9"
     inkscape:label="toundra"
     transform="translate(0,780)">
    <path
       style="fill:#d1a976;fill-opacity:1;fill-rule:evenodd;stroke:none;stroke-width:1px;stroke-linecap:butt;stroke-linejoin:miter;stroke-opacity:1"
       d="m 275,-8.5714266 c 0,0 23.21427,-19.6428504 42.85715,-17.8571504 C 337.5,-24.642852 341.07142,5.7142734 362.5,5.7142734 c 21.42857,0 80.35715,-7.14285 83.92857,7.1428746 3.57143,14.2857 -1.78572,60.714275 7.14285,64.2857 8.92858,3.571425 51.78573,30.357152 37.5,41.071422 -14.2857,10.7143 -39.2857,1.78573 -32.14285,21.42858 7.14285,19.64287 37.5,67.85715 21.42858,85.7143 -16.07143,17.85712 -73.2143,1.7857 -73.2143,1.7857 -14.50183,-18.1273 -8.92858,-37.5 -48.21428,-48.21428 -39.28572,-10.7143 -82.14285,5.35715 -101.78572,-28.57142 -17.02297,-29.40333 21.42862,-27.8277 21.42857,-62.500002 0,0 -16.2264,-39.715725 -23.21427,-51.7857 C 235.71429,2.1428484 262.5,-4.1071266 275,-8.5714266 Z"
       id="path4874"
       inkscape:connector-curvature="0"
       sodipodi:nodetypes="ssssssssssssss" />
  </g>
  <g
     inkscape:groupmode="layer"
     id="layer10"
     inkscape:label="foret 1"
     transform="translate(0,780)">
    <path
       style="fill:#295b06;fill-opacity:1;fill-rule:evenodd;stroke:none;stroke-width:1px;stroke-linecap:butt;stroke-linejoin:miter;stroke-opacity:1"
       d="m 407.14285,-353.21428 c 12.11052,31.4629 53.57142,37.5 75,37.5 21.42857,0 142.85715,-89.28572 169.64287,-96.42857 26.7857,-7.14288 210.71428,-80.35715 194.64285,-100 -16.07142,-19.64287 -41.07142,-10.7143 -41.07142,-30.35715 0,-19.64286 17.85712,-46.42857 -8.92858,-42.85715 -26.78572,3.57143 -57.14285,5.35715 -66.07142,17.85715 -8.92858,12.5 -8.92858,48.21427 -33.92858,48.21427 -25,0 -60.7143,-12.49999 -69.64285,1.78573 -8.92857,14.28572 -62.5,89.28572 -78.57145,89.28572 -16.07142,0 -151.77215,47.19978 -141.07142,75 z"
       id="path4877"
       inkscape:connector-curvature="0"
       sodipodi:nodetypes="sssssssssss" />
  </g>
  <g
     inkscape:groupmode="layer"
     id="layer11"
     inkscape:label="foret 2"
     transform="translate(0,780)">
    <path
       style="fill:#295b06;fill-opacity:1;fill-rule:evenodd;stroke:none;stroke-width:1px;stroke-linecap:butt;stroke-linejoin:miter;stroke-opacity:1"
       d="m 1164.2008,280.08877 c 6.3135,2.52538 12.6269,12.6269 36.618,12.6269 23.9911,0 7.5762,13.8896 26.5165,16.41498 18.9404,2.52537 37.8808,-11.3642 42.9315,-16.41498 5.0508,-5.05075 8.8388,-29.04187 13.8896,-50.50762 5.0508,-21.46575 11.3642,-36.61803 27.7792,-41.6688 16.415,-5.05075 26.5165,-21.46573 12.6269,-23.99113 -13.8896,-2.52537 -27.7792,-31.56725 -39.1434,-17.67765 -11.3642,13.88958 -7.5761,31.56725 -35.3553,35.35533 -27.7792,3.78807 -51.7704,20.20305 -65.66,26.5165 -13.8895,6.31345 -23.9911,8.83885 -23.9911,23.99112 0,15.1523 3.7881,35.35535 3.7881,35.35535 z"
       id="path4880"
       inkscape:connector-curvature="0" />
  </g>
  <g
     inkscape:groupmode="layer"
     id="layer12"
     inkscape:label="prairie 1"
     transform="translate(0,780)">
    <path
       style="fill:#689634;fill-opacity:1;fill-rule:evenodd;stroke:none;stroke-width:1px;stroke-linecap:butt;stroke-linejoin:miter;stroke-opacity:1"
       d="m 199.50513,-570.96475 c -17.67767,22.72843 6.31345,77.02412 0,83.33757 -6.31346,6.31348 -26.01362,23.55073 -26.51651,41.6688 -0.50289,18.11808 9.9978,39.47443 22.72844,50.50763 0,0 88.38834,32.82995 117.43024,20.20305 29.04187,-12.6269 65.1497,-33.36568 85.86295,-55.5584 17.67767,-18.94035 16.415,-59.34645 16.415,-59.34645 -5.28395,-12.0776 -15.1523,-36.61803 -15.1523,-53.033 0,-16.41498 41.6688,-65.65992 20.20305,-65.65992 -21.46575,0 -49.24495,-30.30458 -55.5584,-15.15229 -6.31345,15.15229 -32.82995,45.45687 -47.98225,40.4061 -15.15228,-5.05076 -110.07587,3.17131 -117.43022,12.62691 z"
       id="path4883"
       inkscape:connector-curvature="0"
       sodipodi:nodetypes="sszsssssssss" />
  </g>
  <g
     inkscape:groupmode="layer"
     id="layer13"
     inkscape:label="prairie 2"
     style="display:inline"
     transform="translate(0,780)">
    <path
       style="fill:#689634;fill-opacity:1;fill-rule:evenodd;stroke:none;stroke-width:1px;stroke-linecap:butt;stroke-linejoin:miter;stroke-opacity:1"
       d="m 637.65877,192.96312 c -13.41835,13.10335 -2.52535,50.50763 7.57618,59.34645 10.10152,8.83883 56.82107,-5.05075 80.8122,-18.94035 23.99112,-13.8896 29.04187,-39.14342 50.50762,-40.4061 21.46575,-1.2627 95.96448,-30.3046 101.01525,-44.19417 5.05075,-13.8896 25.85273,-82.794352 21.46575,-94.701802 -8.83885,-23.991125 -29.0419,16.414975 -53.03302,31.56725 -23.99113,15.152302 -42.93148,54.295702 -70.71068,55.558402 -27.7792,1.26267 -51.77032,15.15227 -73.23605,21.46572 -21.82927,9.08248 -50.97887,17.20123 -64.39725,30.3046 z"
       id="path4886"
       inkscape:connector-curvature="0"
       sodipodi:nodetypes="zssssssscz" />
  </g>
</svg>
