<?xml version="1.0" standalone="no"?>
<!DOCTYPE svg PUBLIC "-//W3C//DTD SVG 1.1//EN" "http://www.w3.org/Graphics/SVG/1.1/DTD/svg11.dtd" >
<svg xmlns="http://www.w3.org/2000/svg" xmlns:xlink="http://www.w3.org/1999/xlink" version="1.1">
<metadata></metadata>
<defs>
<font id="kleymisskyregular" horiz-adv-x="968" >
<font-face units-per-em="2048" ascent="1229" descent="-819" />
<missing-glyph horiz-adv-x="591" />
<glyph unicode="&#xfb01;" horiz-adv-x="937" d="M-35 -625q48 279 185 1004h-109l4 29h107l4 20q2 6 2 14q0 25 -19 80q-39 112 -39 209q0 163 123 278t297 115q142 0 240 -78t98 -179v-25l-12 -66q-3 -15 -20 -26t-38 -11h-83l8 39q9 64 59 64h39q1 6 1 16q0 96 -86.5 168t-209.5 72q-127 0 -217 -110t-90 -265 q0 -89 19 -182q12 -64 12 -84q0 -19 -2 -27l-5 -20l213 4l-6 -35h-211l-151 -1000zM524 471v10h138q71 2 139 90l4 -2l-100 -317q-19 -116 -19 -148q0 -36 11.5 -47.5t45.5 -11.5t92.5 25.5t114.5 66.5l6 -6q-75 -55 -154 -97t-118 -42t-62.5 24.5t-23.5 73.5q0 58 18 160 l17 209z" />
<glyph unicode="&#xfb02;" horiz-adv-x="937" d="M-35 -625q114 595 185 1004h-89l5 29h86q5 20 5 36q0 32 -32 94q-55 110 -55 203q0 123 90 212t217 89q65 0 111.5 -36t46.5 -84q0 -87 -74 -158l-94 47q50 26 78 51.5t28 57.5q0 41 -29.5 71.5t-70.5 30.5q-80 0 -137.5 -85.5t-57.5 -203.5q0 -80 35 -183 q23 -65 23 -104q0 -6 -3 -36l275 4l-6 -35h-273l-151 -1000zM606 1024v10h121q42 0 73 11.5t44.5 23t32.5 33.5l4 -2q-52 -236 -116.5 -579.5t-64.5 -416.5q0 -39 7.5 -56t29.5 -17q59 0 205 106l6 -6q-86 -67 -143 -103t-94 -36q-40 0 -68.5 25t-28.5 73q0 52 19 160 l90 770z" />
<glyph unicode="&#xfb03;" horiz-adv-x="1368" d="M-27 -584l177 963h-109l4 29h107l4 20q2 10 2 16q0 25 -19 79q-39 112 -39 208q0 141 86.5 260t235 188.5t323.5 69.5q148 0 273 -51t197.5 -139t72.5 -192v-25l-12 -66q-3 -15 -19.5 -26t-37.5 -11h-84l8 39q9 64 59 64h39q1 6 1 16q0 96 -86.5 168t-209.5 72 q-127 0 -217 -110t-90 -265q0 -84 20 -182q11 -59 11 -84q0 -19 -2 -27l-4 -20l213 4l-7 -35h-211l-120 -795q-26 -175 -144 -290t-276 -115q-55 0 -101 33l16 22q42 -33 89 -33q112 0 196.5 108.5t114.5 272.5l146 797h-351l-97 -654q-25 -171 -151 -312zM209 723 q0 -89 19 -182q12 -64 12 -84q0 -19 -2 -27l-5 -20h351l2 14q2 10 2 18q0 26 -19 81q-39 112 -39 208q0 163 123 278t297 115q154 0 256 -90q-66 88 -191 141.5t-274 53.5q-145 0 -267.5 -68t-193.5 -184.5t-71 -253.5zM954 471v10h138q71 2 139 90l4 -2l-100 -317 q-19 -116 -19 -148q0 -36 12 -47.5t46 -11.5t92 25.5t114 66.5l6 -6q-75 -55 -154 -97t-118 -42t-62.5 24.5t-23.5 73.5q0 52 19 160l16 209z" />
<glyph unicode="&#xfb04;" horiz-adv-x="1368" d="M-27 -584l177 963h-109l4 29h107l4 22l2 12q0 26 -19 81q-39 112 -39 208q0 101 41.5 193.5t111.5 159t167 106t203 39.5q142 0 242 -90t100 -217q0 -87 -74 -158l-94 47q50 26 78 51.5t28 57.5q0 41 -29.5 71.5t-70.5 30.5q-80 0 -137.5 -85.5t-57.5 -203.5 q0 -79 35 -182q23 -65 23 -105v-16l-2 -20l274 4l-6 -35h-273l-120 -795q-26 -175 -144 -290t-276 -115q-55 0 -101 33l16 22q42 -33 89 -33q112 0 196.5 108.5t114.5 272.5l146 797h-351l-97 -654q-25 -171 -151 -312zM209 723q0 -88 19 -181q12 -64 12 -85q0 -19 -2 -27 l-5 -20h349l4 20q1 5 1 15q0 32 -32 94q-55 110 -55 202q0 123 90 212t217 89q57 0 102 -29q-31 86 -111 140.5t-180 54.5q-111 0 -205.5 -65t-149 -176.5t-54.5 -243.5zM1036 1024v10h121q42 0 73 11.5t44.5 23t32.5 33.5l4 -2q-52 -236 -116.5 -579.5t-64.5 -416.5 q0 -39 7.5 -56t29.5 -17q59 0 205 106l6 -6q-86 -67 -143 -103t-94 -36q-40 0 -68.5 25t-28.5 73q0 52 19 160l90 770z" />
<glyph horiz-adv-x="0" />
<glyph horiz-adv-x="682" />
<glyph unicode=" "  horiz-adv-x="591" />
<glyph unicode="&#x09;" horiz-adv-x="591" />
<glyph unicode="&#xa0;" horiz-adv-x="591" />
<glyph unicode="!" horiz-adv-x="432" d="M125 0l8 39q9 63 60 63h75l-12 -65q-3 -15 -19.5 -26t-37.5 -11h-74zM170 315q31 97 52 284q18 192 22 262.5t8 244.5l143 2q-50 -249 -90 -506q-31 -210 -35 -285z" />
<glyph unicode="&#x22;" horiz-adv-x="485" d="M200 922l33 266h78l-41 -266h-70zM372 922l34 266h77l-41 -266h-70z" />
<glyph unicode="#" horiz-adv-x="815" d="M135 371l10 45h162l39 200h-174l10 46h172l56 274h45l-54 -274h199l55 274h45l-53 -274h176l-10 -46h-176l-37 -200h186l-10 -45h-186l-49 -250h-45l47 250h-199l-49 -250h-45l47 250h-162zM354 416h199l39 200h-201z" />
<glyph unicode="$" horiz-adv-x="673" d="M96 254l15 106h16v-4q0 -42 35.5 -76t91.5 -48l48 339q-113 86 -113 182q0 48 44.5 86.5t113.5 52.5l35 255h29l-35 -250q24 2 38 2q17 0 55 -8l36 256h29l-37 -262q36 -8 46 -8q38 0 56.5 17t31.5 48l8 -4l-59 -152l-7 2q-44 35 -81 56l-36 -255q68 -47 107 -96.5 t39 -115.5q0 -60 -56.5 -107.5t-143.5 -65.5l-35 -245h-29l34 241q-26 -3 -50 -3q-23 0 -44 3l-34 -241h-28l34 246q-48 12 -85 29q-45 20 -69 20zM264 773q0 -45 53 -90l25 176q-36 -12 -57 -35t-21 -51zM282 226q19 -3 42 -3q24 0 52 5l38 267q-6 4 -18.5 12t-18.5 12 q-8 5 -24.5 16t-24.5 17zM343 663q22 -16 61 -41q4 -3 12.5 -8.5t12.5 -7.5l36 251q-29 13 -53 13q-20 0 -40 -3zM406 236q52 16 84.5 49t32.5 72q0 59 -83 120z" />
<glyph unicode="%" horiz-adv-x="1241" d="M151 816q0 124 77.5 212t187.5 88q31 0 64.5 -10.5t53.5 -27.5q103 -83 222 -83q56 0 117.5 30t183.5 108l43 -31l-840 -1151l-50 39l763 1032l63 71l-78 -52q-121 -68 -204 -68q-98 0 -178 51q32 -60 32 -119q0 -125 -77.5 -213t-186.5 -88q-77 0 -135 62t-58 150z M238 831q0 -83 36 -137.5t95 -54.5q63 0 108 74t45 177q0 82 -36.5 136.5t-95.5 54.5q-63 0 -107.5 -73t-44.5 -177zM747 201q0 124 77.5 212.5t187.5 88.5q79 0 135.5 -62t56.5 -150q0 -124 -77 -212t-187 -88q-80 0 -136.5 61.5t-56.5 149.5zM834 216q0 -80 38 -135.5 t93 -55.5q63 0 108 73.5t45 176.5q0 80 -38.5 136t-93.5 56q-63 0 -107.5 -73.5t-44.5 -177.5z" />
<glyph unicode="&#x26;" horiz-adv-x="1130" d="M60 145q0 89 103 182l225 202q-101 188 -101 245q0 68 63 117t151 49q68 0 115.5 -41t47.5 -100q0 -52 -37 -96t-154 -145l105 -226q12 -27 39 -76l179 178q51 51 141 68h-199q-33 0 -57.5 -24t-31.5 -60l-15 3q6 50 37.5 85t73.5 35h365l-2 -39h-57q-139 0 -230 -90 l-187 -186q96 -160 196 -160q113 0 233 116l8 -8q-38 -45 -59.5 -68t-58 -55.5t-71.5 -47t-72 -14.5q-110 0 -226 187l-54 -53q-135 -134 -277 -134q-83 0 -138 46t-55 110zM168 201q0 -67 41.5 -104t105.5 -37q105 0 190 85l61 60q-29 50 -71 128l-91 166l-186 -167 q-21 -20 -35.5 -56.5t-14.5 -74.5zM401 774q0 -57 57 -185q116 100 146 134.5t30 75.5q0 43 -35 72.5t-85 29.5q-47 0 -80 -37.5t-33 -89.5z" />
<glyph unicode="'" horiz-adv-x="313" d="M200 922l33 266h78l-41 -266h-70z" />
<glyph unicode="(" horiz-adv-x="514" d="M120 359q0 167 40 327.5t108 292t148.5 237t171.5 187.5l18 -20q-87 -77 -154 -186.5t-106 -220t-64 -234.5t-33.5 -223.5t-8.5 -194.5q0 -216 35.5 -372t97.5 -229l-23 -20q-38 45 -74 103t-73.5 141t-60 190.5t-22.5 221.5z" />
<glyph unicode=")" horiz-adv-x="585" d="M64 -277q62 55 124 155t117.5 235t90 311.5t34.5 357.5q0 216 -35.5 372t-97.5 229l23 20q38 -45 74 -103t73.5 -141t60.5 -190.5t23 -221.5q0 -148 -34 -293.5t-84.5 -257t-117 -213t-123 -166.5t-111.5 -114z" />
<glyph unicode="*" horiz-adv-x="665" d="M201 872q0 6 24.5 19.5t38.5 13.5q6 0 14 -3t13 -5.5t18.5 -11t20.5 -13.5q18 -11 37 -18t30 -9t23 -3l12 -2q-17 61 -20 161q-4 32 -4 35q0 8 4.5 14t8 8.5t5.5 2.5q5 -3 13 -9t21 -22.5t13 -32.5q0 -9 -9 -48t-9 -64q0 -38 4 -54q41 30 145 74q9 3 19 7.5t15.5 7 t8.5 2.5q4 0 11.5 -5t7.5 -10q0 -18 -7.5 -31t-17.5 -20t-24 -11.5t-24.5 -5.5t-21.5 -2t-12 -1q-21 -2 -40 -7t-29 -10t-19.5 -10t-11.5 -6q50 -39 114 -119q5 -6 14 -16t12 -14.5t3 -8.5q0 -16 -8 -16q-17 0 -28.5 1t-21 5t-14 5t-10.5 11t-7.5 13t-8.5 20t-10 23 q-12 27 -23.5 43.5t-25 28.5t-15.5 14q-26 -69 -76 -144q-3 -5 -8 -13t-7 -11t-5.5 -8t-5.5 -6.5t-5.5 -3t-7.5 -1.5q-6 0 -10 14t-5 28l-1 14q0 9 1.5 15.5t7.5 13.5t10 10.5t16.5 13.5t19.5 16q22 19 35 38t18.5 33t6.5 15q-56 2 -160 29q-7 2 -17 4l-15 3t-11 3.5t-8 6 t-2 9.5z" />
<glyph unicode="+" horiz-adv-x="864" d="M146 510l7 45h322l36 314h45l-52 -314h322l-6 -45h-320l-38 -314h-46l52 314h-322z" />
<glyph unicode="," horiz-adv-x="317" d="M63 0l7 39q9 63 59 63h96l-12 -65q-16 -83 -80 -240h-22q39 160 39 203h-87z" />
<glyph unicode="-" horiz-adv-x="774" d="M193 463l6 37h522l-6 -37h-522z" />
<glyph unicode="." horiz-adv-x="296" d="M61 0l9 39q9 63 59 63h76l-12 -65q-3 -15 -20 -26t-38 -11h-74z" />
<glyph unicode="/" horiz-adv-x="1134" d="M53 -194q140 187 599 818q327 448 492 671l67 -53q-85 -111 -488 -665q-421 -580 -604 -824z" />
<glyph unicode="0" horiz-adv-x="954" d="M119 466q0 177 63.5 326.5t172.5 236.5t238 87q138 0 236.5 -139.5t98.5 -335.5q0 -177 -64 -327t-173 -237t-237 -87q-91 0 -168 63.5t-122 173.5t-45 239zM250 442q0 -172 67 -293.5t162 -121.5q86 0 159 85t115.5 232t42.5 321q0 171 -67 292.5t-161 121.5 q-87 0 -160 -85t-115.5 -232t-42.5 -320zM471 532q0 17 12 29t29 12t29 -12t12 -29t-12 -28.5t-29 -11.5t-29 11.5t-12 28.5z" />
<glyph unicode="1" horiz-adv-x="419" d="M108 1016l129 43q128 39 154 86l4 -2l-83 -602q-38 -275 -66 -541l-114 -2q26 80 91 540l31 496l-142 -33z" />
<glyph unicode="2" horiz-adv-x="868" d="M22 39q64 57 195 160q67 53 104.5 83.5t95.5 81t91.5 87t73.5 88t61 97t36 100.5t15 111q0 96 -65 164t-156 68q-107 0 -182.5 -79.5t-75.5 -191.5q0 -64 48 -108.5t116 -44.5l-58 -76q-70 0 -119.5 65.5t-49.5 157.5q0 130 102 222t245 92q128 0 219 -74.5t91 -179.5 q0 -53 -10 -104t-25 -93.5t-43.5 -86.5t-53 -77t-66 -73t-71.5 -65.5t-81 -63.5t-81 -59t-85 -58q-124 -86 -136 -95q28 15 89.5 28.5t97.5 13.5q66 0 194 -21q108 -18 176 -18q86 0 126 30l4 -9q-84 -62 -138 -91.5t-93 -29.5q-77 0 -207 44q-104 36 -159 36 q-84 0 -183 -79z" />
<glyph unicode="3" horiz-adv-x="864" d="M30 -41l1 47l126 -6q139 0 256.5 49t186 133.5t68.5 184.5t-83.5 171.5t-201.5 71.5l-131 -9l2 44h156q103 0 175 68.5t72 165.5q0 83 -52.5 141.5t-126.5 58.5q-72 0 -125.5 -52.5t-64.5 -131.5l-3 -14h-122q15 104 112 169.5t229 65.5q116 0 197 -65t81 -157 t-82.5 -163t-210.5 -102q133 -21 221.5 -96t88.5 -175q0 -108 -86.5 -200t-235 -145.5t-324.5 -53.5h-123z" />
<glyph unicode="4" horiz-adv-x="878" d="M23 217v59q56 51 146.5 198t167.5 334.5t77 307.5h164q0 -57 -101 -247t-214 -367t-159 -228h499l15 400l1 22h157l-6 -39l-68 -383h154l-4 -57h-155q-11 -127 -13 -217l-117 -2q22 123 31 219h-575z" />
<glyph unicode="5" horiz-adv-x="884" d="M72 233q0 20 4 48h103q-3 -17 -3 -32q0 -91 60.5 -155.5t146.5 -64.5q125 0 214.5 108.5t89.5 262.5q0 118 -66.5 195t-179.5 77l-256 -8l54 442q92 0 334 -19q115 -10 157 -10q65 0 99 37l30 35l21 -17q-66 -84 -118 -130t-95 -46q-17 0 -141 10q-182 15 -265 15 l-39 -274h248q134 0 237.5 -85.5t103.5 -206.5q0 -176 -132.5 -300.5t-320.5 -124.5q-118 0 -202 71t-84 172z" />
<glyph unicode="6" horiz-adv-x="921" d="M101 440q0 183 82 339t222.5 246.5t305.5 90.5h71l-1 -47l-74 6q-130 0 -241 -83.5t-176 -227t-65 -312.5q0 -114 33.5 -211t91.5 -153.5t126 -56.5q112 0 191 100.5t79 242.5q0 108 -55 184.5t-132 76.5q-87 0 -152.5 -60.5t-78.5 -152.5h-39q16 109 100.5 180.5 t198.5 71.5q117 0 199.5 -84.5t82.5 -204.5q0 -164 -123 -279.5t-297 -115.5q-95 0 -175.5 60t-127 164t-46.5 226z" />
<glyph unicode="7" horiz-adv-x="800" d="M114 1001l19 115q25 0 69.5 -1t113.5 -2t112 -2q218 -5 338 -5q40 0 67.5 17.5t64.5 66.5l9 -6q-52 -80 -70 -107q-75 -112 -120.5 -183t-113.5 -194t-107.5 -222t-71.5 -227.5t-37 -250.5l-141 -3q0 71 15.5 147.5t38 141.5t61.5 142t71.5 132t84.5 129.5t83 116.5 t83 110q62 80 97 131q-120 0 -314 -22q-200 -24 -352 -24z" />
<glyph unicode="8" horiz-adv-x="980" d="M98 258q0 124 105.5 219t267.5 130q-85 24 -138.5 84t-53.5 137q0 120 101.5 205t244.5 85q112 0 192 -65t80 -157q0 -99 -71.5 -176t-184.5 -110q128 -25 212.5 -99t84.5 -172q0 -145 -137 -247.5t-330 -102.5q-155 0 -264 78.5t-109 190.5zM221 277q0 -102 81.5 -174 t197.5 -72q131 0 223.5 85.5t92.5 206.5q0 109 -81 186t-196 77q-131 0 -224.5 -90.5t-93.5 -218.5zM383 843q0 -89 56.5 -152.5t136.5 -63.5q90 0 153 73.5t63 177.5q0 83 -57 141t-138 58q-89 0 -151.5 -68.5t-62.5 -165.5z" />
<glyph unicode="9" horiz-adv-x="964" d="M157 -41l1 47l85 -6q149 0 275 87.5t199.5 238t73.5 328.5q0 174 -73.5 297.5t-176.5 123.5q-107 0 -183.5 -100.5t-76.5 -242.5q0 -108 52 -184.5t125 -76.5q87 0 152.5 60.5t78.5 152.5h39q-16 -109 -100.5 -180.5t-198.5 -71.5q-113 0 -192.5 84.5t-79.5 204.5 q0 164 120 279.5t289 115.5q95 0 175.5 -60t127 -164t46.5 -226q0 -144 -53.5 -274.5t-144 -225.5t-215.5 -151t-263 -56h-82z" />
<glyph unicode=":" horiz-adv-x="258" d="M61 0l9 39q9 63 59 63h76l-12 -65q-3 -15 -20 -26t-38 -11h-74zM121 422l8 39q9 63 59 63h76l-12 -65q-3 -15 -19.5 -26t-37.5 -11h-74z" />
<glyph unicode=";" horiz-adv-x="258" d="M63 0l7 39q9 63 59 63h96l-12 -65q-16 -83 -80 -240h-22q39 160 39 203h-87zM121 422l8 39q9 63 59 63h76l-12 -65q-3 -15 -19.5 -26t-37.5 -11h-74z" />
<glyph unicode="&#x3c;" horiz-adv-x="745" d="M127 532l573 482l25 -33l-520 -438l352 -439l-51 -43z" />
<glyph unicode="=" horiz-adv-x="884" d="M156 406l10 45h625l-11 -43zM199 627l10 45h625l-11 -43z" />
<glyph unicode="&#x3e;" horiz-adv-x="745" d="M119 94l520 438l-352 439l51 43l379 -471l-574 -482z" />
<glyph unicode="?" horiz-adv-x="696" d="M148 448q0 31 9 59t22.5 50.5t37 45t44 38t53 34.5t55 30.5t58.5 28.5q55 27 85 43.5t66 42t52 53t16 59.5q0 61 -54.5 104t-131.5 43q-95 0 -179.5 -68t-108.5 -196h-15l38 227q22 0 84 27q107 47 185 47q117 0 199 -55.5t82 -134.5q0 -43 -20 -80t-63 -70t-78.5 -54 t-97.5 -52q-47 -24 -72 -37.5t-61.5 -37t-55 -43t-33 -46.5t-14.5 -56q0 -37 33 -63.5t79 -26.5q194 0 223 209h11l-28 -200q-21 0 -64 -18q-83 -34 -149 -34q-85 0 -146 38.5t-61 92.5zM252 0l8 39q9 63 59 63h76l-12 -65q-3 -15 -19.5 -26t-37.5 -11h-74z" />
<glyph unicode="@" horiz-adv-x="1388" d="M131 231q0 329 205.5 530.5t540.5 201.5q133 0 246.5 -64t179 -173.5t65.5 -238.5q0 -174 -101 -293.5t-249 -119.5q-47 0 -79 49.5t-36 128.5q-29 -85 -101 -143t-151 -58q-87 0 -144.5 67t-57.5 163q0 133 86 217t215 84q31 0 91 -12q47 -9 62 -9q68 0 91.5 15.5 t37.5 54.5l6 -2l-75 -318q-5 -49 -5 -98q0 -48 23.5 -79.5t52.5 -31.5q128 0 218.5 112.5t90.5 272.5q0 185 -136.5 316t-329.5 131q-323 0 -521 -194t-198 -511q0 -195 141 -333t340 -138q164 0 320 85l13 -22q-163 -87 -333 -87q-138 0 -255 66.5t-185 181t-68 249.5z M557 254q0 -79 28.5 -127.5t88.5 -48.5q61 0 114.5 69t67.5 162l27 232q-28 0 -57 4q-48 6 -81 6q-77 0 -132.5 -83.5t-55.5 -213.5z" />
<glyph unicode="A" horiz-adv-x="1026" d="M17 -8q39 64 160 341l330 750l34 -8l-295 -663h393l-64 671l-154 9v14l311 3l14 -697h72q36 0 60.5 31t53.5 104l13 -3q-32 -103 -59 -160h-140l2 -48q2 -93 4 -133t11 -86t27 -61t50 -15q68 0 228 141l6 -8q-63 -59 -101.5 -91.5t-91.5 -63t-91 -30.5q-63 0 -95 81.5 t-49 262.5l-5 51h-408l-21 -48q-90 -203 -93 -336z" />
<glyph unicode="B" horiz-adv-x="983" d="M73 0l8 27q115 2 425 2q128 0 221.5 90.5t93.5 226.5q0 98 -70.5 170t-169.5 72l-227 -1l6 31q101 7 251 7q82 0 143.5 74.5t61.5 176.5q0 83 -59.5 143t-143.5 60q-34 0 -130 2t-99 2l-4 -6l29 -6l-121 -715q-31 -209 -32 -284l-124 -2q28 81 57 284l64 731l-141 7v14 l291 3q156 7 256 7q111 0 189 -70t78 -162q0 -93 -69 -166t-165 -101q111 -22 184.5 -94t73.5 -165q0 -105 -64 -188t-166 -126.5t-218 -43.5h-429z" />
<glyph unicode="C" horiz-adv-x="835" d="M133 488q0 181 66 326t176.5 223.5t241.5 78.5q29 0 98 -15q50 -11 65 -11q42 0 63 21.5t35 62.5l9 -3l-64 -213l-6 3q-39 36 -111.5 77t-113.5 41q-108 0 -185.5 -86.5t-114 -224t-36.5 -307.5q0 -196 67.5 -310t187.5 -114q149 0 294 145l8 -8q-43 -43 -72 -69t-72 -56 t-87 -44.5t-92 -14.5q-103 0 -185 65.5t-127 179t-45 253.5z" />
<glyph unicode="D" horiz-adv-x="1105" d="M150 1106l291 3q65 0 118 3q72 4 108 4q176 0 291 -137.5t115 -343.5q0 -130 -50.5 -249t-132 -203t-187.5 -133.5t-214 -49.5h-317l7 27q115 2 313 2q85 0 168 49t147 130t103.5 194t39.5 233q0 191 -86.5 317.5t-221.5 126.5q-39 0 -219 4l-4 -6l29 -6l-119 -715 q-18 -144 -18 -227q0 -36 3 -57l-125 -2q29 81 52 284l50 731l-140 7z" />
<glyph unicode="E" horiz-adv-x="890" d="M42 -7l3 42q30 -6 94 -6q15 68 51 325l64 729l-140 9v14h399l390 19l-41 -247h-14l16 174l-357 25h-138v-4l41 -6l-69 -410h69l204 10l35 155h15q-9 -96 -21 -182q-9 -68 -33 -201h-15l11 174l-159 16h-111l-47 -273q-29 -200 -37 -327h169l365 25l32 174h14l-30 -257 l-27 2l-5 9l-351 18q-270 0 -377 -7z" />
<glyph unicode="F" horiz-adv-x="901" d="M112 1092v14h460l389 19q-7 -47 -21.5 -136t-17.5 -111h-15l17 174l-358 25h-198l-1 -4l41 -6l-90 -532h94l287 17l34 147h15l-22 -182l-32 -201h-15l11 166l-242 24h-134l-29 -170q-31 -211 -38 -336l-115 -2q16 69 54 335l66 750z" />
<glyph unicode="G" d="M-69 -573q0 59 56.5 123.5t139.5 118.5t196.5 109.5t206 93.5t190.5 73q-3 29 -3 51q0 13 2 33l19 146h-9q-39 -76 -109.5 -130.5t-144.5 -54.5q-153 0 -264.5 140.5t-111.5 342.5q0 173 67 322t178.5 235t238.5 86q41 0 106 -19q43 -12 59 -12q71 0 103 93l9 -2 l-65 -218l-5 3q-47 39 -115 78.5t-117 39.5q-91 0 -169.5 -89.5t-123 -232.5t-44.5 -299q0 -184 74.5 -302.5t199.5 -118.5q84 0 153.5 70t80.5 155l4 266h-181l2 29h164q49 0 111.5 25t79.5 57l5 -2l-108 -465l-18 -143v-13q0 -17 5 -45l88 31l8 -26l-90 -34q13 -51 24 -91 q49 -170 49 -244q0 -113 -74 -208t-201 -150.5t-277 -55.5q-161 0 -275 68.5t-114 165.5zM23 -574q0 -85 88 -144.5t213 -59.5q180 0 307 117t127 282q0 57 -22 199q0 1 -13 94q-83 -32 -168 -69t-184 -89.5t-173.5 -104.5t-124.5 -112t-50 -113z" />
<glyph unicode="H" horiz-adv-x="1124" d="M81 466l4 28h116l53 589l-141 9v14l313 3l-5 -28l-10 -6l-98 -581h481l82 589l-140 9v14l297 3l-130 -615h151l-6 -28h-151l-27 -130q-20 -138 -20 -196q0 -51 15 -75t51 -24q68 0 228 141l6 -8q-212 -185 -284 -185q-107 0 -107 199q0 63 12 145l18 133h-481l-22 -130 q-31 -211 -38 -336l-123 -2q26 81 62 335l12 133h-118z" />
<glyph unicode="I" horiz-adv-x="421" d="M113 1092v14l313 3l-6 -28l-10 -6l-124 -739q-34 -234 -38 -336l-123 -2q26 81 62 335l66 750z" />
<glyph unicode="J" horiz-adv-x="464" d="M-404 -429q0 115 125 196t301 81l-9 -65q-161 0 -274.5 -61t-113.5 -147q0 -79 71.5 -134t172.5 -55q94 0 164 69t84 174l112 704l66 750l-140 9v14l313 3l-6 -28l-9 -6l-125 -739q-19 -131 -51 -391.5t-37 -315.5q-17 -120 -124 -196t-251 -76q-112 0 -190.5 62.5 t-78.5 151.5z" />
<glyph unicode="K" horiz-adv-x="970" d="M113 1092v14l303 5q-4 -33 -5 -36l-82 -489h41q120 133 291 339q145 173 157 183q32 4 82 4l118 2l-2 -57q-18 2 -46 2q-70 0 -148 -54t-179 -158q-113 -116 -240 -262q67 -1 110.5 -5.5t84 -16t65 -33t42 -55.5t26.5 -85q181 -1027 800 -1027q172 0 346 124l7 -10 q-188 -154 -406 -154q-181 0 -329 76t-255.5 219.5t-182 339t-118.5 446.5q-7 41 -21.5 68t-34 44t-53 26t-69 12t-91.5 3l-37 -221q-30 -208 -39 -336l-122 -2q26 81 62 335l65 750z" />
<glyph unicode="L" horiz-adv-x="878" d="M43 -7l3 42q30 -6 94 -6q15 68 51 325l64 729l-140 9v14l313 3l-6 -28l-10 -6l-121 -719q-34 -234 -37 -327h168l373 66l26 154h15l-31 -278l-27 2l-5 9l-353 18q-270 0 -377 -7z" />
<glyph unicode="M" horiz-adv-x="1499" d="M72 -2q18 57 55.5 220.5t59.5 319.5l64 545l-121 9v14h313q0 -65 11 -116l236 -936l413 936q22 48 39 98q-15 0 -45.5 2t-45.5 2v14l274 3l-78 -763q-18 -166 -18 -211q0 -49 14 -71.5t49 -22.5q67 0 227 141l7 -8q-48 -46 -74 -70t-67 -55.5t-75.5 -45.5t-67.5 -14 q-55 0 -92.5 35t-37.5 101q0 63 28 208l121 750q-3 0 -9.5 0.5t-9.5 0.5q-18 -69 -34 -101l-537 -1020h-63q-119 623 -194 1020q-6 27 -6 98h-21l-101 -540q-38 -190 -75 -541z" />
<glyph unicode="N" horiz-adv-x="989" d="M113 1092v14h313q0 -75 16 -116l367 -935q20 151 50 483l17 545l-124 9v14l229 3l-85 -568q-41 -274 -66 -542l-119 -15l-371 999q-10 29 -10 98h-25l-46 -540q-13 -129 -22.5 -309t-9.5 -232l-104 -8q20 64 89 546l41 545z" />
<glyph unicode="O" d="M89 466q0 291 138 470.5t357 179.5q146 0 250 -139.5t104 -335.5q0 -292 -137 -471.5t-355 -179.5q-97 0 -179 63.5t-130 173.5t-48 239zM221 442q0 -172 73.5 -293.5t176.5 -121.5q152 0 244.5 175.5t92.5 462.5q0 171 -73 292.5t-176 121.5q-152 0 -245 -175t-93 -462z " />
<glyph unicode="P" horiz-adv-x="983" d="M105 1106l291 3q56 0 124 3q102 4 143 4q137 0 233.5 -102.5t96.5 -247.5q0 -186 -125.5 -317.5t-303.5 -131.5h-195l4 31h195q125 0 213.5 126t88.5 304q0 125 -67.5 213t-164.5 88q-67 0 -269 4l-3 -6l43 -6l-69 -410l-54 -325q-31 -249 -38 -336l-123 -2q20 71 62 335 l59 752l-140 7z" />
<glyph unicode="Q" horiz-adv-x="995" d="M-113 -141q0 56 47.5 95.5t115.5 39.5q40 0 79 -11t81 -35.5t70.5 -45t77.5 -58.5q209 116 335.5 333t126.5 476q0 186 -72.5 306t-192.5 120q-91 0 -168.5 -84t-122.5 -228.5t-45 -314.5q0 -155 55.5 -246t149.5 -91q102 0 214 123l13 -20q-126 -139 -250 -139 q-122 0 -213 111.5t-91 286.5q0 174 64.5 321t176 232.5t242.5 85.5q95 0 178 -63t133.5 -174.5t50.5 -244.5q0 -247 -153.5 -474.5t-395.5 -341.5q57 -44 97 -71t98.5 -58.5t120.5 -46.5t129 -15q103 0 179 57l6 -9q-176 -139 -309 -139q-57 0 -110 15.5t-90.5 35.5t-81 58 t-67 63t-63.5 70q-142 -56 -264 -56q-70 0 -110.5 37.5t-40.5 99.5zM-84 -142q0 -48 32.5 -77t85.5 -29q119 0 244 53q-66 75 -118 112.5t-114 37.5q-54 0 -92 -28.5t-38 -68.5z" />
<glyph unicode="R" horiz-adv-x="991" d="M113 1092v14l290 3q12 0 34 0.5t33 1.5q107 5 178 5q121 0 218 -93t97 -223q0 -166 -118 -283.5t-284 -117.5q-25 1 -74 2t-73 2q62 -21 122 -55.5t103.5 -66t100 -85.5t87.5 -86.5t89 -95.5q95 -103 182 -179t187.5 -139t210.5 -95.5t227 -32.5q87 0 178.5 24.5 t155.5 69.5l7 -10q-79 -64 -198 -109t-218 -45q-104 0 -204.5 29t-186 76t-175 120.5t-162.5 148.5t-157 174q-55 64 -84.5 97.5t-78.5 84t-84.5 79t-81 55.5t-88.5 40l5 23l194 5q122 0 208 110t86 265q0 118 -60.5 196t-156.5 78q-121 0 -237 4l-4 -6l29 -6l-124 -735 q-30 -208 -38 -336l-123 -2q26 81 62 335l66 752z" />
<glyph unicode="S" horiz-adv-x="823" d="M68 66l25 182h13v-10q0 -83 73.5 -151.5t184.5 -68.5q120 0 205.5 74.5t85.5 179.5q0 36 -16 67t-53 60.5t-66 48t-84 49.5q-40 23 -59.5 34.5t-55.5 35t-55.5 40.5t-45 44.5t-38.5 53.5t-22.5 60.5t-9.5 71.5q0 131 100.5 205t258.5 74q43 0 105 -16q40 -10 57 -10 q42 0 63.5 21.5t35.5 62.5l8 -3l-49 -206l-6 2q-37 37 -104 74.5t-115 37.5q-115 0 -190.5 -55t-75.5 -155q0 -29 13 -56t30 -46.5t51 -43t58.5 -38t69.5 -38.5q46 -25 72.5 -40.5t67.5 -42.5t64.5 -51.5t48 -57.5t36 -71t11.5 -82q0 -129 -117.5 -220.5t-282.5 -91.5 q-79 0 -200 49q-65 27 -92 27z" />
<glyph unicode="T" horiz-adv-x="915" d="M120 878l27 251l264 -23h299l271 23l-41 -251h-14l16 178l-234 21h-117v-4l41 -6l-136 -731q-24 -167 -24 -271q0 -17 3 -65l-120 -2q16 69 54 335l66 744h-66l-241 -19l-33 -180h-15z" />
<glyph unicode="U" horiz-adv-x="1050" d="M108 1037q97 79 141 79q50 0 74.5 -35.5t24.5 -126.5q0 -62 -16 -182l-70 -554q-2 -24 -2 -35q0 -60 23.5 -101t60.5 -41q70 0 151 81.5t147.5 216t94.5 279.5l59 467l-79 7l-1 14h125q64 0 101 8l5 -4l-146 -774q-23 -159 -23 -196q0 -51 15.5 -75t52.5 -24 q36 0 99.5 40t132.5 101l7 -8q-65 -57 -107 -90.5t-96.5 -64t-90.5 -30.5q-102 0 -102 191q0 64 12 153l13 104q-68 -188 -176 -318t-201 -130q-86 0 -143 50.5t-57 131.5q0 22 2 33l86 565q31 210 31 231q0 33 -10.5 48.5t-35.5 15.5q-36 0 -95 -38z" />
<glyph unicode="V" horiz-adv-x="954" d="M46 1031q36 27 58.5 42.5t52 29t51.5 13.5t42 -21t35.5 -61.5t28 -89.5t23.5 -115.5t19.5 -128.5t16.5 -139q47 -440 86 -546q61 132 213 595l156 475l-178 7l-2 14h228q47 0 88.5 21.5t63.5 58.5l5 -2l-287 -585q-84 -170 -158.5 -361t-75.5 -238l-138 -25 q-49 98 -108 621q-21 191 -53 323.5t-60 132.5q-48 0 -101 -32z" />
<glyph unicode="W" horiz-adv-x="1476" d="M48 1027q118 89 160 89q27 0 49.5 -26t40.5 -84t30.5 -111t25.5 -149t19.5 -153t17.5 -165q34 -338 62 -416q41 92 174 537l161 536l-265 7l2 14h294q47 0 91.5 22t66.5 58l5 -2l-132 -299q17 -198 69 -485.5t87 -387.5q44 98 184 537l171 536l-101 7l2 14h130 q47 0 91.5 22t66.5 58l5 -2l-295 -646q-80 -169 -146.5 -335.5t-68.5 -202.5l-134 -11q-54 107 -122 760l-93 -211q-200 -476 -204 -538l-134 -10q-18 37 -38 138.5t-31.5 182t-32.5 243.5q-17 129 -26 192t-23.5 149t-27.5 122.5t-26 36.5q-36 0 -99 -38z" />
<glyph unicode="X" horiz-adv-x="954" d="M-5 8q32 30 196 235t230 306l13 20q-186 495 -224 495q-35 0 -100 -38l-5 11q103 79 142 79q63 0 235 -478l307 447l-142 7l2 14h219q41 0 73 18t74 66l8 -6l-509 -638q59 -168 119 -356q12 -37 20.5 -57.5t22.5 -43t31 -32.5t40 -10q67 0 227 135l7 -8 q-67 -61 -103.5 -92.5t-86 -63t-78.5 -31.5q-25 0 -46 12t-29 34q-35 70 -173 453q-103 -129 -198 -280.5t-131 -219.5z" />
<glyph unicode="Y" horiz-adv-x="958" d="M72 1021q41 34 99 64.5t83 30.5q14 0 28 -13.5t30 -44.5t29 -60t31.5 -82t30 -86.5t31.5 -96.5q77 -237 116 -314h2q28 41 84 139t99 196l143 331l-142 7v14h137q46 0 92.5 22.5t70.5 57.5l6 -2l-259 -441q-181 -308 -194 -366q-37 -267 -44 -377l-134 -2q28 89 70 388 q-39 65 -144 333q-30 79 -49 125.5t-43 100t-41 78.5t-30 25q-35 0 -95 -39z" />
<glyph unicode="Z" horiz-adv-x="813" d="M28 8q24 26 163.5 231.5t199.5 309.5l270 467q-160 0 -376 -15q-128 -8 -160 -8l39 123q293 -10 551 -10q40 0 67.5 17.5t64.5 66.5l9 -6l-419 -646q-101 -154 -264 -433q49 14 132 14q71 0 192 -11q80 -6 95 -6q131 0 213 80l7 -8q-55 -57 -90 -90.5t-80 -64t-74 -30.5 q-24 0 -106 13q-134 22 -222 22q-102 0 -164 -34z" />
<glyph unicode="[" horiz-adv-x="614" d="M83 -301q5 27 135 784l19 140q16 116 29 236t31 313t22 235h388l-3 -29l-232 -4l-137 -753l-19 -136l-71 -753l227 -4l-4 -29h-385z" />
<glyph unicode="\" horiz-adv-x="620" d="M49 1368l86 14q86 -361 278 -1158q72 -299 152 -638l-86 -14q-79 336 -306 1280q-115 478 -124 516z" />
<glyph unicode="]" horiz-adv-x="614" d="M60 -301l4 29l228 4l141 753l19 136l75 753l-231 4l4 29h388q-12 -66 -45 -240t-55 -301t-38 -243l-19 -140q-10 -87 -28 -246.5t-32.5 -292t-25.5 -245.5h-385z" />
<glyph unicode="^" horiz-adv-x="520" d="M165 879l198 159h40l197 -159l-26 -30l-190 168h-2l-190 -168z" />
<glyph unicode="_" horiz-adv-x="970" d="M68 -635l6 47h723l-6 -45z" />
<glyph unicode="`" horiz-adv-x="360" d="M175 986l81 60q12 9 25 9q17 0 29 -15l128 -210l-20 -15q-60 76 -115.5 116t-123.5 50z" />
<glyph unicode="a" horiz-adv-x="772" d="M51 221q0 133 86 217t215 84q31 0 91 -12q42 -8 63 -8q47 0 73.5 9t36.5 21.5t19 38.5l6 -2l-76 -317q-4 -39 -4 -98q0 -61 12 -88t39 -27q67 0 185 98l8 -6q-72 -63 -123 -97t-88 -34q-80 0 -88 193q-29 -85 -101 -143t-151 -58q-87 0 -145 66.5t-58 162.5zM160 195 q0 -79 28 -128t88 -49q61 0 115 69.5t68 162.5l26 231q-19 0 -56 5q-48 6 -81 6q-77 0 -132.5 -83.5t-55.5 -213.5z" />
<glyph unicode="b" horiz-adv-x="700" d="M29 -2q20 51 55 252l88 770l-127 4v10h145q90 0 134 68l4 -2l-113 -633q108 63 197 63q100 0 160.5 -59t60.5 -156q0 -134 -87.5 -228.5t-211.5 -94.5q-70 0 -119 39.5t-63 103.5q-23 0 -48 -30.5t-36.5 -56t-20.5 -48.5zM164 186q0 -72 49.5 -121t124.5 -49t128.5 85 t53.5 206q0 88 -34 141.5t-89 53.5q-78 0 -188 -66l-37 -184q-8 -40 -8 -66z" />
<glyph unicode="c" horiz-adv-x="604" d="M49 207q0 145 82 234t209 89q24 0 57 -11q35 -11 52 -11q38 0 58 17t32 48l8 -2l-62 -168l-4 3q-104 86 -164 86q-61 0 -108 -80.5t-47 -196.5q0 -83 42.5 -134.5t106.5 -51.5q72 0 132.5 28t123.5 80l6 -6q-39 -34 -62.5 -52.5t-61 -42t-76.5 -34t-82 -10.5 q-105 0 -173.5 59.5t-68.5 155.5z" />
<glyph unicode="d" horiz-adv-x="763" d="M51 223q0 127 82.5 217t196.5 90q85 0 178 -66l57 556l-127 4v10h148q73 0 129 68l4 -2l-148 -848q-18 -103 -18 -160q0 -61 37 -61q62 0 186 92l6 -6q-79 -63 -129 -94t-88 -31q-88 0 -92 134q-32 -62 -86.5 -98t-118.5 -36q-88 0 -152.5 68t-64.5 163zM168 203 q0 -81 31 -132t92 -51q68 0 120.5 52.5t67.5 133.5l6 44l20 188q-93 64 -181 64q-65 0 -110.5 -87.5t-45.5 -211.5z" />
<glyph unicode="e" horiz-adv-x="636" d="M49 207q0 134 94.5 228.5t227.5 94.5q84 0 146.5 -38.5t62.5 -92.5q0 -58 -58 -105t-152 -73t-204 -28q4 -70 54.5 -117t119.5 -47q126 0 256 108l6 -6q-79 -68 -142.5 -103.5t-137.5 -35.5q-112 0 -192.5 63t-80.5 152zM164 205q134 3 217.5 55t83.5 131q0 45 -35 78 t-82 33q-85 0 -134.5 -78.5t-49.5 -208.5v-10z" />
<glyph unicode="f" horiz-adv-x="475" d="M-35 -625q142 743 185 1004h-109l4 29h107l2 8q4 13 4 26q0 30 -19 81q-39 105 -39 208q0 128 99 219.5t239 91.5q70 0 120 -37t50 -90q0 -87 -73 -157l-97 47q24 12 37.5 19.5t32.5 21.5t28 30.5t9 36.5q0 45 -32.5 77t-78.5 32q-93 0 -159 -88t-66 -211q0 -88 19 -181 q12 -64 12 -85q0 -19 -2 -27l-5 -20l213 4l-6 -35h-211l-151 -1000z" />
<glyph unicode="g" horiz-adv-x="673" d="M-192 -428q0 32 14.5 61t46 54t63.5 46t87 42.5t96 36t109 33t108 29t111 27.5q-7 58 -7 89q0 12 2 30l17 119q-31 -68 -81 -107.5t-114 -39.5q-92 0 -152 64.5t-60 161.5q0 128 89 220t201 92q48 0 99 -3q14 0 39 -1.5t32 -1.5q91 0 119 47l4 -2l-98 -315l-52 -234 q-3 -9 -3 -21q0 -27 17 -85l101 24l4 -22l-98 -25q13 -41 16 -50q45 -131 45 -193q0 -122 -118.5 -205.5t-272.5 -83.5q-152 0 -258 67t-106 146zM-82 -432q0 -73 74.5 -129.5t181.5 -56.5q118 0 204.5 81.5t86.5 206.5q0 45 -15 169q-1 6 -2.5 19t-2.5 19 q-54 -13 -83 -20.5t-80.5 -21.5t-81.5 -24.5t-73.5 -27.5t-69 -32t-55.5 -36t-46 -42.5t-27 -48.5t-11 -56zM158 215q0 -85 35 -140t90 -55q61 0 115.5 68.5t68.5 161.5l-2 252h-150q-57 0 -107 -90t-50 -197z" />
<glyph unicode="h" horiz-adv-x="747" d="M33 -2q20 51 55 252l90 770l-127 4v10h121q42 0 92.5 22t63.5 46l4 -2l-119 -631l-31 -195q49 125 120.5 198t158.5 73q65 0 110 -38.5t45 -98.5q0 -38 -42 -180q-38 -132 -38 -159q0 -30 29 -30q61 0 207 106l4 -6q-86 -67 -143 -103t-94 -36q-41 0 -58.5 22t-17.5 71 q0 47 18 157l19 108q6 30 6 56q0 40 -14 65t-37 25q-109 0 -190 -123t-113 -309q-2 -14 -4 -32t-3.5 -28.5t-1.5 -11.5z" />
<glyph unicode="i" horiz-adv-x="448" d="M35 471v10h137q71 2 139 90l4 -2l-100 -317q-18 -110 -18 -148q0 -36 11.5 -47.5t45.5 -11.5t92.5 25.5t114.5 66.5l6 -6q-75 -55 -154 -97t-118 -42t-62.5 24.5t-23.5 73.5q0 58 18 160l16 209zM209 730l7 51q5 38 20.5 53.5t44.5 15.5h90l-13 -73q-3 -20 -19.5 -33.5 t-39.5 -13.5h-90z" />
<glyph unicode="j" horiz-adv-x="389" d="M-945 -415q0 97 62.5 171.5t181.5 98.5l5 -12q-111 -24 -168.5 -90.5t-57.5 -153.5q0 -61 28.5 -120.5t80.5 -108.5t134 -79t179 -30q221 0 387 148t203 376l39 235l47 474l-131 6v10h168q55 0 109 61l4 -2l-144 -776q-47 -254 -239 -416.5t-447 -162.5q-102 0 -187.5 33 t-139.5 86.5t-84 119t-30 132.5zM219 730l7 51q5 38 20.5 53.5t44.5 15.5h90l-12 -73q-3 -20 -20 -33.5t-40 -13.5h-90z" />
<glyph unicode="k" horiz-adv-x="669" d="M37 -8q22 55 57 258l90 770l-131 4v10h148q34 0 60.5 11.5t38.5 22.5t32 34l4 -2l-156 -846q-2 -12 -2 -16l305 284q28 4 76 4l107 2l-4 -71h-46q-90 0 -149 -20t-121 -72l-40 -37h102q69 -190 166 -348.5t218.5 -279t271.5 -188t312 -67.5q160 0 303 103l6 -6 q-167 -136 -357 -136q-168 0 -324.5 67.5t-283 189t-228 282.5t-172.5 354h-44q-73 -70 -86 -80l-18 -14q-23 -150 -27 -211z" />
<glyph unicode="l" horiz-adv-x="391" d="M59 1024v10h121q42 0 73 11.5t44.5 23t32.5 33.5l4 -2q-51 -233 -115.5 -577.5t-64.5 -418.5q0 -40 7 -56.5t29 -16.5q59 0 205 106l6 -6q-86 -67 -143 -103t-94 -36q-40 0 -68 25t-28 73q0 58 18 160l90 770z" />
<glyph unicode="m" horiz-adv-x="1155" d="M12 461v10h109q26 0 45.5 11.5t28 23.5t20.5 33l4 -2l-6 -272q48 127 118 203.5t150 76.5q68 0 107 -39t39 -103q0 -22 -4 -34l-13 -64q48 110 113.5 175t138.5 65q69 0 112.5 -39.5t43.5 -102.5q0 -24 -36 -152q-38 -134 -38 -169q0 -12 8.5 -20.5t20.5 -8.5 q74 0 198 90l7 -4q-85 -67 -143 -103t-95 -36q-41 0 -57.5 21t-16.5 69q0 51 19 160l16 108q6 30 6 56q0 40 -14 65t-37 25q-86 0 -158.5 -96.5t-111.5 -247.5q-17 -123 -17 -160l-120 -2q28 69 55 252l16 108q6 30 6 56q0 40 -14 65t-37 25q-97 0 -175.5 -120t-110.5 -296 q-7 -45 -11 -86l-108 -4q17 42 53 252v207z" />
<glyph unicode="n" horiz-adv-x="768" d="M23 477v10h102q56 0 90 70l4 -2l-8 -298q48 128 119.5 206t152.5 78q69 0 111.5 -39.5t42.5 -102.5q0 -40 -35 -147q-48 -144 -48 -189q0 -32 30 -32q61 0 207 106l4 -6q-85 -66 -143 -102.5t-95 -36.5q-41 0 -58.5 23.5t-17.5 73.5q0 53 21 161l20 102q5 25 5 48 q0 42 -13.5 71t-38.5 29q-95 0 -173 -113.5t-112 -282.5q-12 -89 -12 -104l-110 -8q19 46 55 258v223z" />
<glyph unicode="o" horiz-adv-x="708" d="M49 207q0 91 74 201q12 0 31.5 -13.5t19.5 -25.5q-20 -50 -20 -154q0 -86 51 -140.5t123 -54.5q80 0 140 85t60 202q0 88 -44.5 146.5t-110.5 58.5q-94 0 -94 -129q0 -6 -12 -11t-23 -5v28q0 68 42 107t109 39q106 0 176 -64.5t70 -161.5q0 -133 -100 -228t-236 -95 q-108 0 -182 60t-74 155z" />
<glyph unicode="p" horiz-adv-x="731" d="M-31 -600q15 38 105 596l47 463l-115 10v10h139q101 0 115 6q119 45 191 45q99 0 160 -59.5t61 -155.5q0 -131 -87.5 -223t-211.5 -92q-56 0 -100 25.5t-68 70.5l28 29q9 -44 48.5 -73t95.5 -29q75 0 128.5 83t53.5 201q0 87 -34.5 141t-90.5 54q-62 0 -180 -45 q-52 -255 -64 -316l-28 -145q-18 -96 -47.5 -317.5t-34.5 -272.5z" />
<glyph unicode="q" horiz-adv-x="735" d="M59 207q0 142 91 232.5t217 90.5q34 0 80 -11q40 -9 55 -9q43 0 97 18.5t71 42.5l6 -2l-74 -317l-45 -272q-14 -89 -39.5 -313t-28.5 -285l154 -5v-10h-121q-42 0 -73 -11.5t-44 -22.5t-32 -33l-4 2q5 47 41.5 303t56.5 372l27 156q-40 -64 -97.5 -102.5t-120.5 -38.5 q-86 0 -151.5 63.5t-65.5 151.5zM172 217q0 -88 31.5 -142.5t95.5 -54.5t132 70t83 160v237h-20q-18 0 -56 6q-52 9 -94 9q-84 0 -128 -76.5t-44 -208.5z" />
<glyph unicode="r" horiz-adv-x="589" d="M31 461v10h102q64 0 109 100l4 -2l-25 -327v-4q0 -8 2 -13q40 134 108.5 212.5t135.5 78.5q47 0 86.5 10.5t42.5 26.5h4l-14 -115q-3 -16 -45 -16h-97q-69 0 -141 -97t-98 -249q-8 -70 -8 -76l-111 -2q20 51 55 252l-2 207z" />
<glyph unicode="s" horiz-adv-x="608" d="M-22 43q0 61 44.5 104t110.5 43t113 -42.5t47 -103.5q0 -25 -17.5 -42t-42.5 -17q15 32 15 64q0 50 -34.5 85.5t-83.5 35.5q-56 0 -94 -36.5t-38 -87.5q0 -73 76 -124t183 -51q95 0 162 49.5t67 119.5q0 121 -177 188q-38 14 -59.5 23t-53.5 26t-49 33.5t-30.5 41 t-13.5 53.5q0 62 57.5 93.5t146.5 31.5q23 0 77 -13q38 -9 52 -9q38 0 56.5 17t31.5 48l9 -4l-60 -151l-6 2q-105 82 -162 82q-51 0 -89 -20.5t-38 -56.5q0 -24 31 -41.5t94 -39.5q262 -94 262 -284q0 -90 -91.5 -154t-220.5 -64q-114 0 -194.5 59t-80.5 142z" />
<glyph unicode="t" horiz-adv-x="514" d="M29 479l4 29h137l49 217q6 32 48.5 49t101.5 17h28h4q-25 -38 -116 -283h196l-6 -29h-199q-45 -128 -61 -227q-14 -82 -14 -123q0 -94 65 -94q33 0 94 30.5t119 73.5l6 -6q-80 -64 -140.5 -100.5t-113.5 -36.5t-85.5 32.5t-32.5 88.5q0 40 14 133l39 229h-137z" />
<glyph unicode="u" horiz-adv-x="796" d="M25 471q84 59 127 59q38 0 55.5 -22t17.5 -81q0 -58 -16 -155l-19 -108q-6 -30 -6 -67q0 -33 12 -49.5t42 -16.5q65 0 121.5 54.5t94.5 144t59 203.5l11 75l-71 4v10h112q55 0 90 4l4 -2l-86 -272q-20 -108 -20 -152q0 -69 47 -69q55 0 201 106l6 -6q-58 -43 -94.5 -68 t-81 -48t-70.5 -23q-88 0 -88 136q0 44 11 115q-46 -116 -111.5 -183.5t-143.5 -67.5q-57 0 -105.5 35t-48.5 92q0 28 34 145q43 153 43 186q0 42 -39 42q-27 0 -80 -29z" />
<glyph unicode="v" horiz-adv-x="710" d="M-16 477q32 21 50 31.5t42 19.5t43 9q16 0 29.5 -11t24.5 -36t19 -48t17.5 -65.5t14 -68t13.5 -75.5q29 -171 52 -223q23 19 65.5 94t71.5 154l80 221l-84 4l-2 13h96q70 0 117.5 26.5t73.5 61.5l8 -2l-228 -332q-130 -189 -133 -250q-49 0 -141 -18q-17 28 -32.5 86 t-22 95t-19.5 121q-26 167 -43 198q-8 16 -18 16q-32 0 -88 -29z" />
<glyph unicode="w" horiz-adv-x="1126" d="M-16 471q94 61 125 61q19 0 35 -12t28.5 -36t22.5 -50t18.5 -66.5t14.5 -71.5t14 -77q1 -8 2 -12q24 -144 45 -201q104 143 141 252l80 238l-170 4l-2 10h217q39 0 81.5 22.5t63.5 51.5l9 -2l-113 -172q12 -86 50 -215t67 -189q104 143 141 252l80 238l-88 4l-2 10h135 q40 0 82 22.5t63 51.5l9 -2l-220 -332q-89 -133 -116.5 -179t-28.5 -71q-83 0 -123 -8q-44 71 -98 336l-58 -78q-85 -117 -114 -169t-31 -81q-51 0 -123 -8q-37 62 -77 291q-6 35 -10 55.5t-9.5 49t-10.5 44.5t-11 32t-12 23t-13 7q-30 0 -90 -31z" />
<glyph unicode="x" horiz-adv-x="724" d="M4 6q23 17 64 50t108.5 93t112.5 109l12 13q-134 231 -172 231q-39 0 -90 -25l-4 8q91 60 127 60q31 0 80 -65t100 -164l166 180l-92 4l-2 10h161q69 0 148 76l8 -4l-358 -330q32 -70 49 -113q11 -24 18.5 -38t20.5 -29.5t30 -23t39 -7.5q64 0 197 96l6 -6 q-59 -47 -91 -71t-72 -46t-66 -22q-51 0 -68 33q-36 70 -103 190q-154 -147 -181 -225z" />
<glyph unicode="y" horiz-adv-x="755" d="M-705 -495q0 137 123.5 235t298.5 98l-12 -77q-158 0 -270.5 -74.5t-112.5 -179.5q0 -155 152 -265t366 -110q219 0 383.5 138.5t198.5 352.5q11 59 31 255q26 255 47 351q-54 -108 -127.5 -172.5t-149.5 -64.5q-54 0 -103.5 36t-49.5 89q0 72 46 192q40 102 40 140 q0 18 -11 30.5t-26 12.5q-23 0 -86 -29l-6 8q84 59 116 59q35 0 60.5 -19.5t25.5 -47.5q0 -37 -22 -142q-29 -135 -29 -192q0 -94 51 -94q92 0 176.5 96t124.5 244l10.5 56t12.5 65l-70 4v10h111q35 0 57 14.5t49 46.5l5 -2l-119 -346q-11 -65 -29 -277q-21 -240 -35 -323 q-38 -231 -232.5 -377.5t-455.5 -146.5q-147 0 -271 54.5t-196 148t-72 203.5z" />
<glyph unicode="z" horiz-adv-x="608" d="M-2 6q39 31 122 108t138 144l143 178q-256 0 -348 2l37 92q47 0 165 -12q126 -14 194 -14q60 0 135 82l8 -4l-297 -332q-67 -76 -154 -172q58 8 99 8q15 0 61 -4q56 -6 90 -6q116 0 191 61l6 -6q-159 -139 -219 -139q-28 0 -86 10q-62 12 -105 12q-91 0 -137 -22z" />
<glyph unicode="{" horiz-adv-x="567" d="M137 -104q0 15 3 32q9 61 60 258t62 277v4q0 15 -26 37.5t-49 36.5l-17 12l21 12q29 15 61.5 38t34.5 38q12 81 16 279t12 258q7 51 40 92t72.5 64t91 40.5t82 23t58.5 9.5v-29q-28 -4 -56.5 -14t-62 -30.5t-58 -61t-32.5 -94.5q-9 -61 -31.5 -258.5t-33.5 -278.5 q-5 -33 -116 -70q-29 -9 -45 -18q9 -6 36 -16q101 -36 101 -67q0 -1 -0.5 -2.5t-0.5 -2.5q-12 -84 -44.5 -282t-40.5 -255q-3 -18 -3 -34q0 -44 16 -77.5t42 -51t49 -26t48 -11.5l-8 -29q-35 5 -70.5 14t-89.5 30t-88 61t-34 92z" />
<glyph unicode="|" horiz-adv-x="352" d="M50 -354l251 1780l78 -9l-252 -1780z" />
<glyph unicode="}" horiz-adv-x="557" d="M54 -272q22 3 43.5 9t49.5 20.5t50 35.5t40.5 56t24.5 79q9 61 32 258.5t34 278.5q5 33 121 72q31 11 40 16q-10 7 -41 18q-96 34 -96 64v6q12 84 45 282t41 255q3 18 3 34q0 44 -16 77.5t-42 51t-49 26t-48 11.5l8 29q26 -4 52 -9t70.5 -20.5t77 -35.5t57 -54.5 t24.5 -77.5q0 -21 -2 -32q-9 -61 -60 -259t-62 -278v-2q0 -27 74 -74l18 -12l-21 -12q-29 -15 -61.5 -38t-34.5 -38q-12 -81 -16 -279t-12 -258q-7 -51 -40 -92t-72.5 -64t-91 -40.5t-82 -23t-58.5 -9.5v29z" />
<glyph unicode="~" horiz-adv-x="782" d="M94 387q39 75 79 117.5t91 42.5q36 0 162 -36q125 -36 164 -36q76 0 120 85l27 -15q-39 -75 -79 -117.5t-91 -42.5q-47 0 -164 36q-118 36 -161 36q-76 0 -120 -85z" />
<glyph unicode="&#xa1;" horiz-adv-x="532" d="M195 -412q50 249 90 506q31 210 35 285l100 2q-31 -97 -52 -284q-18 -192 -22 -262.5t-8 -244.5zM322 594l12 65q3 15 19.5 26t37.5 11h74l-8 -39q-9 -63 -60 -63h-75z" />
<glyph unicode="&#xa2;" horiz-adv-x="675" d="M111 473q0 139 93 239.5t220 104.5l47 330l28 -1l-46 -331q14 -2 37 -10q34 -10 51 -10q38 0 58 17t32 48l8 -2l-61 -168l-5 2q-80 66 -126 80l-70 -495q13 -3 26 -3q72 0 132.5 28.5t123.5 80.5l7 -6q-52 -45 -84.5 -69.5t-87 -47t-111.5 -22.5h-12l-39 -279h-28l39 281 q-97 13 -164.5 79.5t-67.5 153.5zM223 481q0 -67 36 -121t90 -75l69 493h-8q-73 0 -130 -88t-57 -209z" />
<glyph unicode="&#xa3;" horiz-adv-x="884" d="M73 18q62 62 140 212t86 278h-138l9 37h129q-1 29 -13 114q-18 116 -18 205q0 104 98.5 178t237.5 74q94 0 160.5 -56.5t66.5 -135.5q0 -107 -55 -183l-70 54q78 69 78 129q0 67 -53 115t-127 48q-88 0 -150.5 -65.5t-62.5 -157.5q0 -71 16 -175q14 -96 15 -144h290 l-8 -37h-283q-8 -103 -85 -224t-164 -213q77 53 168 53q75 0 219 -18q128 -16 206 -16q84 0 125 36l5 -9q-137 -127 -235 -127q-76 0 -205 41q-113 35 -169 35q-104 0 -187 -75z" />
<glyph unicode="&#xa4;" horiz-adv-x="684" d="M159 308l75 65q-37 49 -37 116q0 93 71 166l-65 69l28 26l62 -73q66 50 143 50q79 0 133 -51l78 74l23 -26l-80 -70q39 -51 39 -119q0 -93 -65 -161l63 -66l-29 -26l-59 70q-68 -55 -148 -55q-81 0 -137 54l-72 -69zM258 493q0 -57 39 -96t98 -39q70 0 121.5 52.5 t51.5 120.5q0 57 -38.5 96t-97.5 39q-70 0 -122 -52.5t-52 -120.5z" />
<glyph unicode="&#xa5;" horiz-adv-x="1040" d="M72 1021q41 34 99 64.5t83 30.5q10 0 21 -8t22.5 -25t21.5 -36t22.5 -50t22.5 -57t23.5 -66t23 -68t23.5 -73q72 -227 116 -314h2q110 165 183 335l143 331l-142 7v14h137q46 0 92.5 22.5t70.5 57.5l6 -2l-259 -441q-165 -283 -188 -346h249l-6 -37h-251 q-1 -9 -5.5 -39.5t-6.5 -46.5h244l-6 -36h-242q-7 -54 -26 -238l-134 -2q18 56 48 240h-250l6 36h250q1 5 6 36.5t7 49.5h-245l7 37h234q-40 71 -137 322q-60 159 -99.5 244t-63.5 85q-35 0 -95 -39z" />
<glyph unicode="&#xa6;" horiz-adv-x="352" d="M49 -354l95 664l77 -9l-94 -664zM211 793l90 633l78 -9l-90 -633z" />
<glyph unicode="&#xa7;" horiz-adv-x="905" d="M109 476q0 89 75.5 158.5t193.5 97.5q-75 103 -75 218q0 103 90.5 175.5t218.5 72.5q37 0 93.5 -10t67.5 -10q39 0 50 13t15 50h8v-256h-10v31q-3 55 -73 104t-151 49q-77 0 -131.5 -64t-54.5 -155q0 -38 12.5 -75t29 -65t49 -63t54.5 -55.5t64 -57.5q47 -41 71.5 -64 t62 -65t56.5 -75.5t34 -81t15 -96.5q0 -89 -75.5 -158.5t-193.5 -97.5q75 -103 75 -218q0 -103 -90.5 -175.5t-218.5 -72.5q-37 0 -93.5 10t-67.5 10q-39 0 -50 -13t-15 -50h-8v256h10v-31q3 -55 73.5 -104.5t150.5 -49.5q77 0 131.5 64.5t54.5 155.5q0 38 -12.5 75t-29 65 t-49 63t-54.5 55.5t-64 57.5q-47 41 -71.5 64t-62 65t-56.5 75.5t-34 81t-15 96.5zM231 476q0 -37 13 -73.5t28.5 -63t49 -62.5t54 -54.5t63.5 -57.5q101 -89 143 -140q75 26 122.5 88t47.5 139q0 37 -13 73.5t-28.5 63t-49 62.5t-54 54.5t-63.5 57.5q-101 89 -143 140 q-75 -26 -122.5 -88t-47.5 -139z" />
<glyph unicode="&#xa8;" horiz-adv-x="407" d="M111 872l6 46q9 71 57 71h82l-12 -75q-2 -17 -18 -29.5t-37 -12.5h-78zM412 872l6 46q9 71 57 71h82l-12 -75q-2 -17 -18 -29.5t-37 -12.5h-78z" />
<glyph unicode="&#xa9;" horiz-adv-x="1406" d="M128 283q0 133 56.5 259.5t149.5 220t220.5 150t262.5 56.5q157 0 285.5 -74t201 -201t72.5 -281q0 -178 -95 -336.5t-255 -253.5t-340 -95q-157 0 -285.5 73.5t-200.5 200.5t-72 281zM156 286q0 -110 40.5 -208t111 -168.5t170 -112t211.5 -41.5q130 0 252 54 t210.5 143.5t142 209.5t53.5 247q0 110 -40.5 208t-111 168.5t-170 112t-211.5 41.5q-130 0 -252 -54t-210.5 -143.5t-142 -209.5t-53.5 -247zM505 296q0 130 74 211t188 81q20 0 53 -11q28 -10 45 -10q34 0 51.5 15.5t29.5 43.5l9 -4l-55 -149l-6 2q-94 78 -147 78 q-55 0 -98 -72.5t-43 -176.5q0 -75 38.5 -122t96.5 -47q107 0 229 101l7 -10q-69 -60 -127.5 -91.5t-126.5 -31.5q-95 0 -156.5 53.5t-61.5 139.5z" />
<glyph unicode="&#xaa;" horiz-adv-x="727" d="M127 751q0 100 64.5 163t161.5 63q19 0 68 -9q28 -6 47 -6q51 0 69 11.5t28 40.5l4 -2l-56 -238q-3 -29 -3 -73q0 -46 8.5 -66t29.5 -20q51 0 138 73l6 -4q-113 -99 -158 -99q-59 0 -66 145q-22 -64 -76 -107.5t-113 -43.5q-65 0 -108.5 50t-43.5 122zM208 731 q0 -59 21.5 -95.5t66.5 -36.5t85.5 52t51.5 122l20 173q-11 0 -43 4q-36 4 -60 4q-58 0 -100 -62.5t-42 -160.5z" />
<glyph unicode="&#xab;" horiz-adv-x="532" d="M119 350q0 15 44 62.5t84 83.5l57 49l21 -25q-41 -33 -86.5 -90t-53.5 -78q4 -24 32 -79t59 -88l-26 -26l-44 52q-87 108 -87 139zM285 350q0 15 44 62.5t84 83.5l57 49l22 -25q-41 -33 -87 -90t-54 -78q4 -24 32 -79t59 -88l-26 -26l-45 52q-34 42 -60 83t-26 56z" />
<glyph unicode="&#xac;" horiz-adv-x="1007" d="M229 463l5 37h665l-5 -37l-36 -315h-37l51 315h-643z" />
<glyph unicode="&#xad;" horiz-adv-x="774" d="M193 463l6 37h522l-6 -37h-522z" />
<glyph unicode="&#xae;" horiz-adv-x="1406" d="M128 283q0 133 56.5 259.5t149.5 220t220.5 150t262.5 56.5q157 0 285.5 -74t201 -201t72.5 -281q0 -178 -95 -336.5t-255 -253.5t-340 -95q-157 0 -285.5 73.5t-200.5 200.5t-72 281zM156 286q0 -110 40.5 -208t111 -168.5t170 -112t211.5 -41.5q130 0 252 54 t210.5 143.5t142 209.5t53.5 247q0 110 -40.5 208t-111 168.5t-170 112t-211.5 41.5q-130 0 -252 -54t-210.5 -143.5t-142 -209.5t-53.5 -247zM491 31q16 51 37 204l41 457l-65 4v16l156 3q59 0 84 1q54 2 77 2q80 0 136.5 -58.5t56.5 -140.5q0 -95 -65 -166t-159 -79 q14 -93 58 -155t103 -62q67 0 142 75l7 -8q-99 -99 -183 -99q-74 0 -128 71.5t-67 178.5l-79 3l2 18l113 3q75 0 127 64.5t52 158.5q0 69 -38.5 117.5t-93.5 48.5q-87 0 -157 2l-2 -3l18 -4l-76 -447q-19 -132 -21 -204z" />
<glyph unicode="&#xaf;" horiz-adv-x="512" d="M170 909l4 37h428l-4 -37h-428z" />
<glyph unicode="&#xb0;" horiz-adv-x="534" d="M193 950q0 77 57.5 132t136.5 55q61 0 104.5 -41.5t43.5 -100.5q0 -76 -57.5 -131t-137.5 -55q-61 0 -104 41t-43 100zM262 965q0 -49 31 -84t74 -35q41 0 69.5 39.5t28.5 95.5q0 49 -31 84t-74 35q-41 0 -69.5 -39.5t-28.5 -95.5z" />
<glyph unicode="&#xb1;" horiz-adv-x="1007" d="M207 12l6 37h596l-6 -37h-596zM247 545l5 37h323l36 314h37l-52 -314h322l-5 -37h-323l-36 -315h-37l52 315h-322z" />
<glyph unicode="&#xb2;" horiz-adv-x="718" d="M92 421q58 50 147 120q57 45 91 73t81.5 71t75 78t55 79t40 90t12.5 95q0 72 -47 122.5t-115 50.5q-80 0 -136 -59t-56 -143q0 -47 35.5 -81t86.5 -34l-44 -57q-53 0 -91.5 49.5t-38.5 118.5q0 97 78 166t186 69q97 0 167.5 -56.5t70.5 -135.5q0 -59 -14.5 -113 t-46 -101.5t-63.5 -85t-84 -79t-88.5 -67.5t-96.5 -66l-101 -68q21 11 67 21.5t72 10.5q65 0 146 -14q90 -14 132 -14q62 0 93 23l6 -10q-122 -90 -174 -90q-58 0 -156 34q-73 25 -119 25q-62 0 -137 -60z" />
<glyph unicode="&#xb3;" horiz-adv-x="651" d="M86 362v39l90 -4q159 0 270.5 78.5t111.5 192.5q0 76 -61.5 128t-150.5 52l-98 -7l1 38h117q77 0 131 50t54 123q0 61 -37.5 103.5t-92.5 42.5t-95 -37.5t-48 -96.5l-2 -11h-93q11 78 85 128t173 50q87 0 148.5 -49.5t61.5 -118.5t-63 -122t-159 -77q100 -16 166.5 -72 t66.5 -131q0 -81 -65 -150t-176.5 -109t-243.5 -40h-91z" />
<glyph unicode="&#xb4;" horiz-adv-x="311" d="M162 836l146 206q12 15 29 15q13 0 25 -9l76 -68l-5 -6q-150 -19 -254 -155z" />
<glyph unicode="&#xb5;" horiz-adv-x="796" d="M25 471q84 59 127 59q38 0 55.5 -22t17.5 -81q0 -58 -16 -155l-19 -108q-7 -35 -7 -67q0 -66 55 -66q65 0 121.5 54.5t94.5 144t59 203.5l11 75l-71 4v10h112q55 0 90 4l4 -2l-86 -272q-20 -108 -20 -152q0 -69 47 -69q55 0 201 106l6 -6q-58 -43 -94.5 -68t-81 -48 t-70.5 -23q-88 0 -88 136q0 44 11 115q-46 -116 -111.5 -183.5t-143.5 -67.5q-38 0 -74.5 16.5t-58.5 46.5q-28 -136 -28 -195q0 -63 9 -90q26 0 51.5 -23.5t25.5 -56.5q0 -42 -19 -85.5t-36 -43.5q-25 0 -45 67.5t-20 155.5q0 156 42 352q7 38 33 128q43 153 43 186 q0 42 -39 42q-27 0 -80 -29z" />
<glyph unicode="&#xb6;" horiz-adv-x="1079" d="M213 709q0 128 64 239.5t168 175.5t219 64h340q122 209 425 209l-3 -29q-61 0 -111 -12t-87.5 -29.5t-67.5 -52t-50 -65t-36 -84t-24.5 -93.5t-15.5 -109t-10 -114.5t-8 -125.5v-1q-11 -209 -30 -346l-113 -807h-123l113 805q12 88 24 270q9 134 15.5 207t28 173 t55.5 170q-53 5 -169 5h-129q38 -39 73.5 -117t35.5 -142q0 -69 -11 -144l-173 -1227h-123l109 774q-157 0 -271.5 118t-114.5 288zM328 704q0 -163 74 -267.5t201 -104.5l82 573q6 46 6 111q0 69 -36 143q-142 0 -234.5 -132t-92.5 -323z" />
<glyph unicode="&#xb7;" horiz-adv-x="258" d="M160 553q0 19 14 33t33 14t33 -14t14 -33t-14 -33t-33 -14t-33 14t-14 33z" />
<glyph unicode="&#xb8;" horiz-adv-x="626" d="M90 -467q115 17 191.5 78t76.5 143q0 48 -23 82.5t-56 34.5q-53 0 -93 -27q-16 5 -26 13l43 151l26 -8l-32 -119q48 19 86 19q65 0 111 -40t46 -96q0 -97 -99.5 -169.5t-246.5 -90.5z" />
<glyph unicode="&#xb9;" horiz-adv-x="344" d="M141 1140l97 32q105 32 123 65l4 -2l-63 -451q-41 -302 -50 -406l-93 -1q21 65 68 405l23 368l-104 -25z" />
<glyph unicode="&#xba;" horiz-adv-x="546" d="M121 742q0 69 55 150q10 0 24.5 -9.5t14.5 -19.5q-16 -39 -16 -115q0 -64 38 -105t93 -41q60 0 105.5 63.5t45.5 151.5q0 66 -33.5 110t-83.5 44q-71 0 -71 -97q0 -4 -8.5 -8t-17.5 -4v21q0 51 31.5 80t82.5 29q79 0 131.5 -48t52.5 -121q0 -100 -75 -171t-177 -71 q-81 0 -136.5 45t-55.5 116z" />
<glyph unicode="&#xbb;" horiz-adv-x="532" d="M140 185q39 31 81 84.5t59 82.5q-9 31 -35 84t-56 84l26 25l41 -49q90 -111 90 -142v-2q-2 -13 -41.5 -56t-86.5 -85l-57 -52zM304 185q39 31 81 84.5t59 82.5q-9 30 -35.5 83.5t-56.5 84.5l27 25l41 -49q92 -114 92 -142l-1 -1l-1 -1q-2 -13 -42 -56t-87 -85l-57 -52z " />
<glyph unicode="&#xbf;" horiz-adv-x="782" d="M12 -230q0 43 20 80t63 70t78.5 54t97.5 52q58 30 89.5 48t71.5 47t58 60t18 66q0 37 -33 63t-79 26q-195 0 -224 -209h-10l28 201q23 0 64 17q83 34 149 34q85 0 146 -38.5t61 -92.5q0 -31 -9 -59t-22.5 -50.5t-37 -45t-44 -38t-53 -34.5t-55 -30.5t-58.5 -28.5 q-55 -27 -85 -43.5t-66 -42t-52 -53t-16 -59.5q0 -61 54.5 -104t131.5 -43q94 0 179 68t109 196h15l-38 -227q-25 0 -84 -26q-109 -48 -185 -48q-117 0 -199.5 55.5t-82.5 134.5zM362 594l13 65q3 15 19.5 26t37.5 11h74l-8 -39q-9 -63 -60 -63h-76z" />
<glyph unicode="&#xc0;" horiz-adv-x="1026" d="M17 -8q39 64 160 341l331 750l33 -8l-295 -663h393l-64 671l-154 9v14l311 3l14 -697h72q36 0 60.5 31t53.5 104l13 -3q-32 -103 -59 -160h-140l2 -48q2 -93 4 -133t11 -86t27 -61t50 -15q68 0 228 141l6 -8q-63 -59 -101.5 -91.5t-91.5 -63t-91 -30.5q-63 0 -95 81.5 t-49 262.5l-5 51h-408l-21 -48q-90 -203 -93 -336zM396 1365l81 60q12 9 25 9q17 0 29 -15l128 -210l-20 -15q-60 76 -115.5 116t-123.5 50z" />
<glyph unicode="&#xc1;" horiz-adv-x="1026" d="M17 -8q39 64 160 341l331 750l33 -8l-295 -663h393l-64 671l-154 9v14l311 3l14 -697h72q36 0 60.5 31t53.5 104l13 -3q-32 -103 -59 -160h-140l2 -48q2 -93 4 -133t11 -86t27 -61t50 -15q68 0 228 141l6 -8q-63 -59 -101.5 -91.5t-91.5 -63t-91 -30.5q-63 0 -95 81.5 t-49 262.5l-5 51h-408l-21 -48q-90 -203 -93 -336zM529 1215l146 206q12 15 29 15q13 0 25 -9l76 -68l-5 -6q-150 -19 -254 -155z" />
<glyph unicode="&#xc2;" horiz-adv-x="1026" d="M17 -8q39 64 160 341l331 750l33 -8l-295 -663h393l-64 671l-154 9v14l311 3l14 -697h72q36 0 60.5 31t53.5 104l13 -3q-32 -103 -59 -160h-140l2 -48q2 -93 4 -133t11 -86t27 -61t50 -15q68 0 228 141l6 -8q-63 -59 -101.5 -91.5t-91.5 -63t-91 -30.5q-63 0 -95 81.5 t-49 262.5l-5 51h-408l-21 -48q-90 -203 -93 -336zM394 1258l199 159h39l197 -159l-25 -30l-191 168h-1l-191 -168z" />
<glyph unicode="&#xc3;" horiz-adv-x="1026" d="M17 -8q39 64 160 341l331 750l33 -8l-295 -663h393l-64 671l-154 9v14l311 3l14 -697h72q36 0 60.5 31t53.5 104l13 -3q-32 -103 -59 -160h-140l2 -48q2 -93 4 -133t11 -86t27 -61t50 -15q68 0 228 141l6 -8q-63 -59 -101.5 -91.5t-91.5 -63t-91 -30.5q-63 0 -95 81.5 t-49 262.5l-5 51h-408l-21 -48q-90 -203 -93 -336zM334 1233q26 37 45 59t47 42t55 20q46 0 113 -46q56 -40 94 -40q63 0 121 113l25 -13q-69 -135 -149 -135q-45 0 -113 45q-59 39 -91 39q-49 0 -123 -101z" />
<glyph unicode="&#xc4;" horiz-adv-x="1026" d="M17 -8q39 64 160 341l331 750l33 -8l-295 -663h393l-64 671l-154 9v14l311 3l14 -697h72q36 0 60.5 31t53.5 104l13 -3q-32 -103 -59 -160h-140l2 -48q2 -93 4 -133t11 -86t27 -61t50 -15q68 0 228 141l6 -8q-63 -59 -101.5 -91.5t-91.5 -63t-91 -30.5q-63 0 -95 81.5 t-49 262.5l-5 51h-408l-21 -48q-90 -203 -93 -336zM363 1251l6 46q9 71 57 71h81l-11 -75q-2 -17 -18 -29.5t-37 -12.5h-78zM664 1251l6 46q9 71 57 71h81l-11 -75q-2 -17 -18 -29.5t-37 -12.5h-78z" />
<glyph unicode="&#xc5;" horiz-adv-x="1026" d="M17 -8q39 64 160 341l331 750l33 -8l-295 -663h393l-64 671l-154 9v14l311 3l14 -697h72q36 0 60.5 31t53.5 104l13 -3q-32 -103 -59 -160h-140l2 -48q2 -93 4 -133t11 -86t27 -61t50 -15q68 0 228 141l6 -8q-63 -59 -101.5 -91.5t-91.5 -63t-91 -30.5q-63 0 -95 81.5 t-49 262.5l-5 51h-408l-21 -48q-90 -203 -93 -336zM472 1293q0 57 44 102t104 45q48 0 79.5 -31.5t31.5 -79.5q0 -57 -43.5 -102t-103.5 -45q-48 0 -80 32t-32 79zM500 1297q0 -37 25 -62t63 -25q47 0 81 35.5t34 79.5q0 37 -24.5 61.5t-62.5 24.5q-47 0 -81.5 -35 t-34.5 -79z" />
<glyph unicode="&#xc6;" horiz-adv-x="1423" d="M17 -8q39 64 160 341l330 750l34 -8l-258 -581h452l49 581l-378 17l2 14h596l390 19l-40 -247h-15l17 174l-358 25h-96l-1 -4l41 -6l-69 -410h29l203 10l36 155h14q-9 -96 -21 -182q-11 -86 -32 -201h-15l11 174l-160 16h-70l-46 -273q-29 -200 -37 -327h127l365 25 l32 174h14l-30 -257l-27 2l-5 9l-351 18q-229 0 -336 -7l3 42q30 -6 94 -6q18 80 52 325q2 19 5 56t4 56h-462l-58 -130q-90 -203 -93 -336z" />
<glyph unicode="&#xc7;" horiz-adv-x="835" d="M133 488q0 181 66 326t176.5 223.5t241.5 78.5q32 0 98 -15q50 -11 65 -11q42 0 63 21.5t35 62.5l9 -3l-64 -213l-6 3q-39 36 -111.5 77t-113.5 41q-108 0 -185.5 -86.5t-114 -224t-36.5 -307.5q0 -196 67.5 -310t187.5 -114q149 0 294 145l8 -8q-43 -43 -72 -69t-72 -56 t-87 -44.5t-92 -14.5q-2 0 -8 0.5t-8 0.5l-30 -109q45 18 86 18q65 0 111.5 -39.5t46.5 -95.5q0 -97 -99.5 -169.5t-246.5 -90.5l-5 28q115 17 192 78.5t77 143.5q0 48 -23.5 82.5t-56.5 34.5q-52 0 -92 -27q-17 4 -27 12l39 137q-139 21 -226 159t-87 335z" />
<glyph unicode="&#xc8;" horiz-adv-x="890" d="M42 -7l3 42q30 -6 94 -6q15 68 51 325l64 729l-140 9v14h399l390 19l-41 -247h-14l16 174l-357 25h-138v-4l41 -6l-69 -410h69l204 10l35 155h15q-9 -96 -21 -182q-9 -68 -33 -201h-15l11 174l-159 16h-111l-47 -273q-29 -200 -37 -327h169l365 25l32 174h14l-30 -257 l-27 2l-5 9l-351 18q-270 0 -377 -7zM334 1365l82 60q12 9 25 9q17 0 29 -15l128 -210l-20 -15q-60 76 -116 116t-124 50z" />
<glyph unicode="&#xc9;" horiz-adv-x="890" d="M42 -7l3 42q30 -6 94 -6q15 68 51 325l64 729l-140 9v14h399l390 19l-41 -247h-14l16 174l-357 25h-138v-4l41 -6l-69 -410h69l204 10l35 155h15q-9 -96 -21 -182q-9 -68 -33 -201h-15l11 174l-159 16h-111l-47 -273q-29 -200 -37 -327h169l365 25l32 174h14l-30 -257 l-27 2l-5 9l-351 18q-270 0 -377 -7zM467 1215l147 206q12 15 29 15q13 0 25 -9l75 -68l-4 -6q-150 -19 -254 -155z" />
<glyph unicode="&#xca;" horiz-adv-x="890" d="M42 -7l3 42q30 -6 94 -6q15 68 51 325l64 729l-140 9v14h399l390 19l-41 -247h-14l16 174l-357 25h-138v-4l41 -6l-69 -410h69l204 10l35 155h15q-9 -96 -21 -182q-9 -68 -33 -201h-15l11 174l-159 16h-111l-47 -273q-29 -200 -37 -327h169l365 25l32 174h14l-30 -257 l-27 2l-5 9l-351 18q-270 0 -377 -7zM333 1258l198 159h40l197 -159l-26 -30l-190 168h-2l-190 -168z" />
<glyph unicode="&#xcb;" horiz-adv-x="890" d="M42 -7l3 42q30 -6 94 -6q15 68 51 325l64 729l-140 9v14h399l390 19l-41 -247h-14l16 174l-357 25h-138v-4l41 -6l-69 -410h69l204 10l35 155h15q-9 -96 -21 -182q-9 -68 -33 -201h-15l11 174l-159 16h-111l-47 -273q-29 -200 -37 -327h169l365 25l32 174h14l-30 -257 l-27 2l-5 9l-351 18q-270 0 -377 -7zM316 1251l6 46q9 71 57 71h81l-11 -75q-2 -17 -18 -29.5t-37 -12.5h-78zM617 1251l6 46q9 71 57 71h81l-11 -75q-2 -17 -18 -29.5t-37 -12.5h-78z" />
<glyph unicode="&#xcc;" horiz-adv-x="421" d="M113 1092v14l313 3l-6 -28l-10 -6l-124 -739q-34 -234 -38 -336l-123 -2q26 81 62 335l66 750zM129 1365l82 60q12 9 25 9q17 0 29 -15l128 -210l-20 -15q-60 76 -115.5 116t-123.5 50z" />
<glyph unicode="&#xcd;" horiz-adv-x="421" d="M113 1092v14l313 3l-6 -28l-10 -6l-124 -739q-34 -234 -38 -336l-123 -2q26 81 62 335l66 750zM262 1215l147 206q12 15 29 15q13 0 25 -9l76 -68l-5 -6q-150 -19 -254 -155z" />
<glyph unicode="&#xce;" horiz-adv-x="421" d="M87 1258l198 159h40l197 -159l-26 -30l-190 168h-2l-190 -168zM113 1092v14l313 3l-6 -28l-10 -6l-124 -739q-34 -234 -38 -336l-123 -2q26 81 62 335l66 750z" />
<glyph unicode="&#xcf;" horiz-adv-x="421" d="M111 1251l6 46q9 71 57 71h82l-12 -75q-2 -17 -18 -29.5t-37 -12.5h-78zM113 1092v14l313 3l-6 -28l-10 -6l-124 -739q-34 -234 -38 -336l-123 -2q26 81 62 335l66 750zM412 1251l6 46q9 71 57 71h82l-12 -75q-2 -17 -18 -29.5t-37 -12.5h-78z" />
<glyph unicode="&#xd0;" horiz-adv-x="1126" d="M90 535l6 36h180l36 514l-141 7v14l290 3q43 0 116 3.5t110 3.5q177 0 292 -138t115 -343q0 -130 -50.5 -249t-132.5 -203t-188 -133.5t-214 -49.5h-316l7 27q115 2 313 2q113 0 218.5 81.5t172 223t66.5 301.5q0 191 -86.5 317.5t-221.5 126.5q-39 0 -219 4l-4 -6l30 -6 l-83 -500h232l-6 -36h-231l-31 -179q-19 -152 -19 -227q0 -36 3 -57l-125 -2q29 81 52 284l13 181h-184z" />
<glyph unicode="&#xd1;" horiz-adv-x="989" d="M113 1092v14h313q0 -75 16 -116l367 -935q20 151 50 483l17 545l-124 9v14l229 3l-85 -568q-41 -274 -66 -542l-119 -15l-371 999q-10 29 -10 98h-25l-46 -540q-13 -129 -22.5 -309t-9.5 -232l-104 -8q20 64 89 546l41 545zM400 1233q26 37 45 59t47 42t55 20 q45 0 112 -46q56 -40 95 -40q62 0 120 113l25 -13q-69 -135 -149 -135q-45 0 -113 45q-59 39 -90 39q-50 0 -124 -101z" />
<glyph unicode="&#xd2;" d="M89 466q0 291 138 470.5t357 179.5q146 0 250 -139.5t104 -335.5q0 -292 -137 -471.5t-355 -179.5q-97 0 -179 63.5t-130 173.5t-48 239zM221 442q0 -172 73.5 -293.5t176.5 -121.5q152 0 244.5 175.5t92.5 462.5q0 171 -73 292.5t-176 121.5q-152 0 -245 -175t-93 -462z M395 1365l82 60q12 9 25 9q17 0 29 -15l128 -210l-20 -15q-60 76 -116 116t-124 50z" />
<glyph unicode="&#xd3;" d="M89 466q0 291 138 470.5t357 179.5q146 0 250 -139.5t104 -335.5q0 -292 -137 -471.5t-355 -179.5q-97 0 -179 63.5t-130 173.5t-48 239zM221 442q0 -172 73.5 -293.5t176.5 -121.5q152 0 244.5 175.5t92.5 462.5q0 171 -73 292.5t-176 121.5q-152 0 -245 -175t-93 -462z M524 1215l146 206q12 15 29 15q14 0 26 -9l75 -68l-5 -6q-148 -19 -253 -155z" />
<glyph unicode="&#xd4;" d="M89 466q0 291 138 470.5t357 179.5q146 0 250 -139.5t104 -335.5q0 -292 -137 -471.5t-355 -179.5q-97 0 -179 63.5t-130 173.5t-48 239zM221 442q0 -172 73.5 -293.5t176.5 -121.5q152 0 244.5 175.5t92.5 462.5q0 171 -73 292.5t-176 121.5q-152 0 -245 -175t-93 -462z M406 1258l198 159h40l197 -159l-26 -30l-190 168h-2l-190 -168z" />
<glyph unicode="&#xd5;" d="M89 466q0 291 138 470.5t357 179.5q146 0 250 -139.5t104 -335.5q0 -292 -137 -471.5t-355 -179.5q-97 0 -179 63.5t-130 173.5t-48 239zM221 442q0 -172 73.5 -293.5t176.5 -121.5q152 0 244.5 175.5t92.5 462.5q0 171 -73 292.5t-176 121.5q-152 0 -245 -175t-93 -462z M361 1233q27 37 45 59t46 42t55 20q46 0 113 -46q56 -40 95 -40q62 0 120 113l25 -13q-69 -135 -149 -135q-45 0 -113 45q-59 39 -91 39q-49 0 -123 -101z" />
<glyph unicode="&#xd6;" d="M89 466q0 291 138 470.5t357 179.5q146 0 250 -139.5t104 -335.5q0 -292 -137 -471.5t-355 -179.5q-97 0 -179 63.5t-130 173.5t-48 239zM221 442q0 -172 73.5 -293.5t176.5 -121.5q152 0 244.5 175.5t92.5 462.5q0 171 -73 292.5t-176 121.5q-152 0 -245 -175t-93 -462z M389 1251l6 46q9 71 57 71h82l-12 -75q-2 -17 -18 -29.5t-37 -12.5h-78zM690 1251l6 46q9 71 57 71h82l-12 -75q-2 -17 -17.5 -29.5t-36.5 -12.5h-79z" />
<glyph unicode="&#xd7;" horiz-adv-x="747" d="M145 310l257 222l-210 223l29 27l197 -235l247 235l23 -27l-256 -222l210 -223l-29 -26l-198 234l-247 -234z" />
<glyph unicode="&#xd8;" d="M89 466q0 291 138 470.5t357 179.5q122 0 218 -101l107 161l25 -17l-111 -168q115 -141 115 -350q0 -292 -137 -471.5t-355 -179.5q-124 0 -221 102l-108 -162l-25 17l112 169q-115 143 -115 350zM221 442q0 -133 43 -236l484 728q-35 68 -84 106.5t-105 38.5 q-152 0 -245 -175t-93 -462zM279 174q35 -69 85 -108t107 -39q152 0 244.5 175.5t92.5 462.5q0 128 -45 236z" />
<glyph unicode="&#xd9;" horiz-adv-x="1050" d="M108 1037q97 79 141 79q50 0 74.5 -35.5t24.5 -126.5q0 -62 -16 -182l-70 -554q-2 -24 -2 -35q0 -60 23.5 -101t60.5 -41q70 0 151 81.5t147.5 216t94.5 279.5l59 467l-79 7l-1 14h125q64 0 101 8l5 -4l-146 -774q-23 -159 -23 -196q0 -51 15.5 -75t52.5 -24 q36 0 99.5 40t132.5 101l7 -8q-65 -57 -107 -90.5t-96.5 -64t-90.5 -30.5q-102 0 -102 191q0 64 12 153l13 104q-68 -188 -176 -318t-201 -130q-86 0 -143 50.5t-57 131.5q0 22 2 33l86 565q31 210 31 231q0 33 -10.5 48.5t-35.5 15.5q-36 0 -95 -38zM375 1365l81 60 q12 9 26 9q17 0 29 -15l128 -210l-20 -15q-60 76 -116 116t-124 50z" />
<glyph unicode="&#xda;" horiz-adv-x="1050" d="M108 1037q97 79 141 79q50 0 74.5 -35.5t24.5 -126.5q0 -62 -16 -182l-70 -554q-2 -24 -2 -35q0 -60 23.5 -101t60.5 -41q70 0 151 81.5t147.5 216t94.5 279.5l59 467l-79 7l-1 14h125q64 0 101 8l5 -4l-146 -774q-23 -159 -23 -196q0 -51 15.5 -75t52.5 -24 q36 0 99.5 40t132.5 101l7 -8q-65 -57 -107 -90.5t-96.5 -64t-90.5 -30.5q-102 0 -102 191q0 64 12 153l13 104q-68 -188 -176 -318t-201 -130q-86 0 -143 50.5t-57 131.5q0 22 2 33l86 565q31 210 31 231q0 33 -10.5 48.5t-35.5 15.5q-36 0 -95 -38zM508 1215l147 206 q12 15 29 15q13 0 25 -9l75 -68l-4 -6q-150 -19 -254 -155z" />
<glyph unicode="&#xdb;" horiz-adv-x="1050" d="M108 1037q97 79 141 79q50 0 74.5 -35.5t24.5 -126.5q0 -62 -16 -182l-70 -554q-2 -24 -2 -35q0 -60 23.5 -101t60.5 -41q70 0 151 81.5t147.5 216t94.5 279.5l59 467l-79 7l-1 14h125q64 0 101 8l5 -4l-146 -774q-23 -159 -23 -196q0 -51 15.5 -75t52.5 -24 q36 0 99.5 40t132.5 101l7 -8q-65 -57 -107 -90.5t-96.5 -64t-90.5 -30.5q-102 0 -102 191q0 64 12 153l13 104q-68 -188 -176 -318t-201 -130q-86 0 -143 50.5t-57 131.5q0 22 2 33l86 565q31 210 31 231q0 33 -10.5 48.5t-35.5 15.5q-36 0 -95 -38zM384 1258l198 159h40 l197 -159l-26 -30l-190 168h-2l-190 -168z" />
<glyph unicode="&#xdc;" horiz-adv-x="1050" d="M108 1037q97 79 141 79q50 0 74.5 -35.5t24.5 -126.5q0 -62 -16 -182l-70 -554q-2 -24 -2 -35q0 -60 23.5 -101t60.5 -41q70 0 151 81.5t147.5 216t94.5 279.5l59 467l-79 7l-1 14h125q64 0 101 8l5 -4l-146 -774q-23 -159 -23 -196q0 -51 15.5 -75t52.5 -24 q36 0 99.5 40t132.5 101l7 -8q-65 -57 -107 -90.5t-96.5 -64t-90.5 -30.5q-102 0 -102 191q0 64 12 153l13 104q-68 -188 -176 -318t-201 -130q-86 0 -143 50.5t-57 131.5q0 22 2 33l86 565q31 210 31 231q0 33 -10.5 48.5t-35.5 15.5q-36 0 -95 -38zM367 1251l6 46 q9 71 57 71h82l-12 -75q-2 -17 -18 -29.5t-37 -12.5h-78zM668 1251l6 46q9 71 57 71h82l-12 -75q-2 -17 -18 -29.5t-37 -12.5h-78z" />
<glyph unicode="&#xdd;" horiz-adv-x="958" d="M72 1021q41 34 99 64.5t83 30.5q14 0 28 -13.5t30 -44.5t29 -60t31.5 -82t30 -86.5t31.5 -96.5q77 -237 116 -314h2q28 41 84 139t99 196l143 331l-142 7v14h137q46 0 92.5 22.5t70.5 57.5l6 -2l-259 -441q-181 -308 -194 -366q-37 -267 -44 -377l-134 -2q28 89 70 388 q-39 65 -144 333q-30 79 -49 125.5t-43 100t-41 78.5t-30 25q-35 0 -95 -39zM488 1215l146 206q12 15 29 15q13 0 25 -9l76 -68l-5 -6q-150 -19 -254 -155z" />
<glyph unicode="&#xde;" horiz-adv-x="921" d="M105 1106l305 3l-1 -38l-18 -106q75 8 210 8q137 0 234 -96.5t97 -233.5q0 -160 -125.5 -273.5t-303.5 -113.5h-134l4 31h134q125 0 213.5 108t88.5 260q0 116 -68 198.5t-165 82.5q-62 0 -189 3l-47 -278l-54 -325q-31 -249 -38 -336l-123 -2q20 71 62 335l59 752 l-140 7z" />
<glyph unicode="&#xdf;" horiz-adv-x="864" d="M-199 -582l4 29q106 0 156.5 59.5t65.5 163.5l105 709h-79l2 31h80l7 45q4 27 4 69q0 48 -1 74q-2 52 -2 89q0 147 106.5 251t256.5 104q98 0 166.5 -59t68.5 -143q0 -102 -75 -178t-189 -93q0 -31 10 -58t23.5 -45.5t39.5 -38.5t44.5 -31.5t51.5 -30.5q42 -24 63.5 -38 t50 -39.5t41 -55t12.5 -65.5q0 -73 -87.5 -125t-211.5 -52q-62 0 -148 48q-52 30 -78 30l17 149h14v-12q1 -70 66.5 -128.5t132.5 -58.5q70 0 119.5 41.5t49.5 99.5q0 53 -27.5 90t-82.5 80q-32 25 -51 43.5t-41.5 48t-33.5 66t-11 80.5v62q103 0 176.5 62t73.5 149 q0 69 -55 117.5t-133 48.5q-98 0 -167 -93.5t-69 -226.5q0 -143 -13 -231q-58 -412 -101 -785q-12 -106 -112.5 -179t-238.5 -73z" />
<glyph unicode="&#xe0;" horiz-adv-x="772" d="M51 221q0 133 86 217t215 84q31 0 91 -12q42 -8 63 -8q47 0 73.5 9t36.5 21.5t19 38.5l6 -2l-76 -317q-4 -39 -4 -98q0 -61 12 -88t39 -27q67 0 185 98l8 -6q-72 -63 -123 -97t-88 -34q-80 0 -88 193q-29 -85 -101 -143t-151 -58q-87 0 -145 66.5t-58 162.5zM160 195 q0 -79 28 -128t88 -49q61 0 115 69.5t68 162.5l26 231q-19 0 -56 5q-48 6 -81 6q-77 0 -132.5 -83.5t-55.5 -213.5zM191 843l81 60q11 8 25 8q18 0 29 -14l129 -210l-20 -15q-60 76 -116 116t-124 50z" />
<glyph unicode="&#xe1;" horiz-adv-x="772" d="M51 221q0 133 86 217t215 84q31 0 91 -12q42 -8 63 -8q47 0 73.5 9t36.5 21.5t19 38.5l6 -2l-76 -317q-4 -39 -4 -98q0 -61 12 -88t39 -27q67 0 185 98l8 -6q-72 -63 -123 -97t-88 -34q-80 0 -88 193q-29 -85 -101 -143t-151 -58q-87 0 -145 66.5t-58 162.5zM160 195 q0 -79 28 -128t88 -49q61 0 115 69.5t68 162.5l26 231q-19 0 -56 5q-48 6 -81 6q-77 0 -132.5 -83.5t-55.5 -213.5zM340 692l147 207q11 14 29 14q13 0 25 -9l75 -68l-4 -5q-149 -19 -254 -156z" />
<glyph unicode="&#xe2;" horiz-adv-x="772" d="M51 221q0 133 86 217t215 84q31 0 91 -12q42 -8 63 -8q47 0 73.5 9t36.5 21.5t19 38.5l6 -2l-76 -317q-4 -39 -4 -98q0 -61 12 -88t39 -27q67 0 185 98l8 -6q-72 -63 -123 -97t-88 -34q-80 0 -88 193q-29 -85 -101 -143t-151 -58q-87 0 -145 66.5t-58 162.5zM160 195 q0 -79 28 -128t88 -49q61 0 115 69.5t68 162.5l26 231q-19 0 -56 5q-48 6 -81 6q-77 0 -132.5 -83.5t-55.5 -213.5zM206 736l198 159h40l197 -159l-26 -30l-190 168h-2l-190 -168z" />
<glyph unicode="&#xe3;" horiz-adv-x="772" d="M51 221q0 133 86 217t215 84q31 0 91 -12q42 -8 63 -8q47 0 73.5 9t36.5 21.5t19 38.5l6 -2l-76 -317q-4 -39 -4 -98q0 -61 12 -88t39 -27q67 0 185 98l8 -6q-72 -63 -123 -97t-88 -34q-80 0 -88 193q-29 -85 -101 -143t-151 -58q-87 0 -145 66.5t-58 162.5zM160 195 q0 -79 28 -128t88 -49q61 0 115 69.5t68 162.5l26 231q-19 0 -56 5q-48 6 -81 6q-77 0 -132.5 -83.5t-55.5 -213.5zM160 711q40 56 74.5 88t72.5 32q47 0 113 -45q58 -41 94 -41q62 0 120 114l25 -14q-69 -134 -148 -134q-45 0 -113 45q-59 39 -91 39q-49 0 -123 -101z" />
<glyph unicode="&#xe4;" horiz-adv-x="772" d="M51 221q0 133 86 217t215 84q31 0 91 -12q42 -8 63 -8q47 0 73.5 9t36.5 21.5t19 38.5l6 -2l-76 -317q-4 -39 -4 -98q0 -61 12 -88t39 -27q67 0 185 98l8 -6q-72 -63 -123 -97t-88 -34q-80 0 -88 193q-29 -85 -101 -143t-151 -58q-87 0 -145 66.5t-58 162.5zM160 195 q0 -79 28 -128t88 -49q61 0 115 69.5t68 162.5l26 231q-19 0 -56 5q-48 6 -81 6q-77 0 -132.5 -83.5t-55.5 -213.5zM189 729l6 45q9 72 57 72h81l-11 -75q-2 -17 -18 -29.5t-37 -12.5h-78zM490 729l6 45q9 72 57 72h81l-11 -75q-2 -17 -18 -29.5t-37 -12.5h-78z" />
<glyph unicode="&#xe5;" horiz-adv-x="772" d="M51 221q0 133 86 217t215 84q31 0 91 -12q42 -8 63 -8q47 0 73.5 9t36.5 21.5t19 38.5l6 -2l-76 -317q-4 -39 -4 -98q0 -61 12 -88t39 -27q67 0 185 98l8 -6q-72 -63 -123 -97t-88 -34q-80 0 -88 193q-29 -85 -101 -143t-151 -58q-87 0 -145 66.5t-58 162.5zM160 195 q0 -79 28 -128t88 -49q61 0 115 69.5t68 162.5l26 231q-19 0 -56 5q-48 6 -81 6q-77 0 -132.5 -83.5t-55.5 -213.5zM283 770q0 57 44.5 102.5t104.5 45.5q48 0 79.5 -31.5t31.5 -79.5q0 -57 -43.5 -102.5t-103.5 -45.5q-49 0 -81 32t-32 79zM311 774q0 -37 25.5 -61.5 t63.5 -24.5q47 0 81 35.5t34 79.5q0 37 -24.5 61.5t-62.5 24.5q-47 0 -82 -35.5t-35 -79.5z" />
<glyph unicode="&#xe6;" horiz-adv-x="1036" d="M51 221q0 133 86 217t215 84q34 0 84 -12q34 -8 49 -8q28 0 49 31t29 77h6q-8 -80 -11 -169q84 89 212 89q84 0 146.5 -38.5t62.5 -92.5q0 -58 -58 -105t-152 -73t-204 -28q4 -70 54.5 -117t119.5 -47q126 0 256 108l6 -6q-79 -68 -142.5 -103.5t-137.5 -35.5 q-87 0 -151.5 41t-88.5 106q-38 -66 -99.5 -106.5t-127.5 -40.5q-87 0 -145 66.5t-58 162.5zM160 195q0 -79 28 -128t88 -49q61 0 115 69.5t68 162.5l26 231q-20 0 -57 5q-48 6 -80 6q-77 0 -132.5 -83.5t-55.5 -213.5zM563 205q134 3 217.5 55t83.5 131q0 45 -34.5 78 t-81.5 33q-86 0 -135.5 -78.5t-49.5 -208.5v-10z" />
<glyph unicode="&#xe7;" horiz-adv-x="604" d="M49 207q0 145 82 234t209 89q25 0 58 -11q35 -11 51 -11q38 0 58 17t32 48l8 -2l-62 -168l-4 3q-104 86 -164 86q-61 0 -108 -80.5t-47 -196.5q0 -83 42.5 -134.5t106.5 -51.5q72 0 132.5 28t123.5 80l6 -6q-39 -34 -62.5 -52.5t-61 -42t-76.5 -34t-82 -10.5q-31 0 -54 4 l-31 -114q45 18 86 18q65 0 111 -39.5t46 -95.5q0 -97 -99.5 -169.5t-246.5 -90.5l-4 28q115 17 191.5 78.5t76.5 143.5q0 48 -23.5 82t-56.5 34q-53 0 -92 -26q-16 4 -26 12l41 145q-73 21 -117 75.5t-44 129.5z" />
<glyph unicode="&#xe8;" horiz-adv-x="636" d="M49 207q0 134 94.5 228.5t227.5 94.5q84 0 146.5 -38.5t62.5 -92.5q0 -58 -58 -105t-152 -73t-204 -28q4 -70 54.5 -117t119.5 -47q126 0 256 108l6 -6q-79 -68 -142.5 -103.5t-137.5 -35.5q-112 0 -192.5 63t-80.5 152zM164 205q134 3 217.5 55t83.5 131q0 45 -35 78 t-82 33q-85 0 -134.5 -78.5t-49.5 -208.5v-10zM203 843l81 60q11 8 26 8q18 0 29 -14l128 -210l-20 -15q-60 76 -116 116t-124 50z" />
<glyph unicode="&#xe9;" horiz-adv-x="636" d="M49 207q0 134 94.5 228.5t227.5 94.5q84 0 146.5 -38.5t62.5 -92.5q0 -58 -58 -105t-152 -73t-204 -28q4 -70 54.5 -117t119.5 -47q126 0 256 108l6 -6q-79 -68 -142.5 -103.5t-137.5 -35.5q-112 0 -192.5 63t-80.5 152zM164 205q134 3 217.5 55t83.5 131q0 45 -35 78 t-82 33q-85 0 -134.5 -78.5t-49.5 -208.5v-10zM336 692l146 207q11 14 29 14q14 0 26 -9l75 -68l-4 -5q-149 -19 -254 -156z" />
<glyph unicode="&#xea;" horiz-adv-x="636" d="M49 207q0 134 94.5 228.5t227.5 94.5q84 0 146.5 -38.5t62.5 -92.5q0 -58 -58 -105t-152 -73t-204 -28q4 -70 54.5 -117t119.5 -47q126 0 256 108l6 -6q-79 -68 -142.5 -103.5t-137.5 -35.5q-112 0 -192.5 63t-80.5 152zM164 205q134 3 217.5 55t83.5 131q0 45 -35 78 t-82 33q-85 0 -134.5 -78.5t-49.5 -208.5v-10zM201 736l199 159h40l197 -159l-26 -30l-190 168h-2l-190 -168z" />
<glyph unicode="&#xeb;" horiz-adv-x="636" d="M49 207q0 134 94.5 228.5t227.5 94.5q84 0 146.5 -38.5t62.5 -92.5q0 -58 -58 -105t-152 -73t-204 -28q4 -70 54.5 -117t119.5 -47q126 0 256 108l6 -6q-79 -68 -142.5 -103.5t-137.5 -35.5q-112 0 -192.5 63t-80.5 152zM164 205q134 3 217.5 55t83.5 131q0 45 -35 78 t-82 33q-85 0 -134.5 -78.5t-49.5 -208.5v-10zM185 729l6 45q9 72 56 72h82l-12 -75q-2 -17 -17.5 -29.5t-36.5 -12.5h-78zM486 729l6 45q9 72 57 72h81l-12 -75q-2 -17 -17.5 -29.5t-36.5 -12.5h-78z" />
<glyph unicode="&#xec;" horiz-adv-x="448" d="M35 471v10h137q71 2 139 90l4 -2l-100 -317q-18 -110 -18 -148q0 -36 11.5 -47.5t45.5 -11.5t92.5 25.5t114.5 66.5l6 -6q-75 -55 -154 -97t-118 -42t-62.5 24.5t-23.5 73.5q0 58 18 160l16 209zM78 843l82 60q11 8 25 8q18 0 29 -14l128 -210l-20 -15q-60 76 -116 116 t-124 50z" />
<glyph unicode="&#xed;" horiz-adv-x="448" d="M35 471v10h137q71 2 139 90l4 -2l-100 -317q-18 -110 -18 -148q0 -36 11.5 -47.5t45.5 -11.5t92.5 25.5t114.5 66.5l6 -6q-75 -55 -154 -97t-118 -42t-62.5 24.5t-23.5 73.5q0 58 18 160l16 209zM211 692l147 207q11 14 29 14q13 0 25 -9l75 -68l-4 -5 q-149 -19 -254 -156z" />
<glyph unicode="&#xee;" horiz-adv-x="448" d="M35 471v10h137q71 2 139 90l4 -2l-100 -317q-18 -110 -18 -148q0 -36 11.5 -47.5t45.5 -11.5t92.5 25.5t114.5 66.5l6 -6q-75 -55 -154 -97t-118 -42t-62.5 24.5t-23.5 73.5q0 58 18 160l16 209zM77 736l198 159h40l197 -159l-26 -30l-190 168h-2l-190 -168z" />
<glyph unicode="&#xef;" horiz-adv-x="448" d="M35 471v10h137q71 2 139 90l4 -2l-100 -317q-18 -110 -18 -148q0 -36 11.5 -47.5t45.5 -11.5t92.5 25.5t114.5 66.5l6 -6q-75 -55 -154 -97t-118 -42t-62.5 24.5t-23.5 73.5q0 58 18 160l16 209zM60 729l6 45q9 72 57 72h81l-11 -75q-2 -17 -18 -29.5t-37 -12.5h-78z M361 729l6 45q9 72 57 72h81l-11 -75q-2 -17 -18 -29.5t-37 -12.5h-78z" />
<glyph unicode="&#xf0;" horiz-adv-x="739" d="M55 231q0 122 91 210.5t208 88.5q84 0 146 -60t72 -148q20 94 20 203q0 228 -98 373l-155 -93l-15 24l151 95q-68 84 -151 84l-55 -7l9 35h50q112 0 204 -75l143 90l18 -33l-134 -81q73 -71 115.5 -177.5t42.5 -229.5q0 -242 -120.5 -390t-317.5 -148q-92 0 -158 70 t-66 169zM172 211q0 -79 38 -135t91 -56q79 0 141.5 53.5t100.5 150.5q6 33 6 66q0 88 -59 150t-142 62q-66 0 -121 -86.5t-55 -204.5z" />
<glyph unicode="&#xf1;" horiz-adv-x="768" d="M23 477v10h102q56 0 90 70l4 -2l-8 -298q48 128 119.5 206t152.5 78q69 0 111.5 -39.5t42.5 -102.5q0 -40 -35 -147q-48 -144 -48 -189q0 -32 30 -32q61 0 207 106l4 -6q-85 -66 -143 -102.5t-95 -36.5q-41 0 -58.5 23.5t-17.5 73.5q0 53 21 161l20 102q5 25 5 48 q0 42 -13.5 71t-38.5 29q-95 0 -173 -113.5t-112 -282.5q-12 -89 -12 -104l-110 -8q19 46 55 258v223zM191 711q40 56 74.5 88t72.5 32q46 0 112 -45q58 -41 95 -41q62 0 120 114l25 -14q-69 -134 -149 -134q-45 0 -113 45q-59 39 -90 39q-50 0 -124 -101z" />
<glyph unicode="&#xf2;" horiz-adv-x="708" d="M49 207q0 91 74 201q12 0 31.5 -13.5t19.5 -25.5q-20 -50 -20 -154q0 -86 51 -140.5t123 -54.5q80 0 140 85t60 202q0 88 -44.5 146.5t-110.5 58.5q-94 0 -94 -129q0 -6 -12 -11t-23 -5v28q0 68 42 107t109 39q106 0 176 -64.5t70 -161.5q0 -133 -100 -228t-236 -95 q-108 0 -182 60t-74 155zM224 843l81 60q11 8 25 8q18 0 29 -14l128 -210l-20 -15q-60 76 -115.5 116t-123.5 50z" />
<glyph unicode="&#xf3;" horiz-adv-x="708" d="M49 207q0 91 74 201q12 0 31.5 -13.5t19.5 -25.5q-20 -50 -20 -154q0 -86 51 -140.5t123 -54.5q80 0 140 85t60 202q0 88 -44.5 146.5t-110.5 58.5q-94 0 -94 -129q0 -6 -12 -11t-23 -5v28q0 68 42 107t109 39q106 0 176 -64.5t70 -161.5q0 -133 -100 -228t-236 -95 q-108 0 -182 60t-74 155zM357 692l146 207q11 14 29 14q13 0 25 -9l76 -68l-5 -5q-149 -19 -254 -156z" />
<glyph unicode="&#xf4;" horiz-adv-x="708" d="M49 207q0 91 74 201q12 0 31.5 -13.5t19.5 -25.5q-20 -50 -20 -154q0 -86 51 -140.5t123 -54.5q80 0 140 85t60 202q0 88 -44.5 146.5t-110.5 58.5q-94 0 -94 -129q0 -6 -12 -11t-23 -5v28q0 68 42 107t109 39q106 0 176 -64.5t70 -161.5q0 -133 -100 -228t-236 -95 q-108 0 -182 60t-74 155zM222 736l199 159h39l197 -159l-25 -30l-191 168h-1l-191 -168z" />
<glyph unicode="&#xf5;" horiz-adv-x="708" d="M49 207q0 91 74 201q12 0 31.5 -13.5t19.5 -25.5q-20 -50 -20 -154q0 -86 51 -140.5t123 -54.5q80 0 140 85t60 202q0 88 -44.5 146.5t-110.5 58.5q-94 0 -94 -129q0 -6 -12 -11t-23 -5v28q0 68 42 107t109 39q106 0 176 -64.5t70 -161.5q0 -133 -100 -228t-236 -95 q-108 0 -182 60t-74 155zM177 711q40 56 74.5 88t72.5 32q46 0 112 -45q58 -41 95 -41q62 0 120 114l25 -14q-69 -134 -149 -134q-45 0 -113 45q-58 39 -90 39q-50 0 -124 -101z" />
<glyph unicode="&#xf6;" horiz-adv-x="708" d="M49 207q0 91 74 201q12 0 31.5 -13.5t19.5 -25.5q-20 -50 -20 -154q0 -86 51 -140.5t123 -54.5q80 0 140 85t60 202q0 88 -44.5 146.5t-110.5 58.5q-94 0 -94 -129q0 -6 -12 -11t-23 -5v28q0 68 42 107t109 39q106 0 176 -64.5t70 -161.5q0 -133 -100 -228t-236 -95 q-108 0 -182 60t-74 155zM205 729l6 45q9 72 57 72h82l-12 -75q-2 -17 -17.5 -29.5t-36.5 -12.5h-79zM506 729l6 45q9 72 57 72h82l-12 -75q-2 -17 -17.5 -29.5t-36.5 -12.5h-79z" />
<glyph unicode="&#xf7;" horiz-adv-x="856" d="M145 510l9 45h666l-10 -45h-665zM392 203q0 19 13.5 33t32.5 14t33 -14t14 -33t-14 -33t-33 -14t-32.5 14t-13.5 33zM480 864q0 19 13.5 33t32.5 14t33 -14t14 -33t-14 -32.5t-33 -13.5t-32.5 13.5t-13.5 32.5z" />
<glyph unicode="&#xf8;" horiz-adv-x="708" d="M49 207q0 91 74 201q12 0 31.5 -13.5t19.5 -25.5q-20 -50 -20 -154q0 -70 35 -121l294 360q-45 58 -110 58q-94 0 -94 -129q0 -6 -12 -11t-23 -5v28q0 68 42 107t109 39q72 0 132 -33l90 110l24 -19l-88 -108q88 -66 88 -176q0 -133 -100 -228t-236 -95q-73 0 -135 30 l-95 -116l-23 20l91 111q-94 63 -94 170zM209 70q48 -50 119 -50q80 0 140 85t60 202q0 69 -28 120z" />
<glyph unicode="&#xf9;" horiz-adv-x="796" d="M25 471q84 59 127 59q38 0 55.5 -22t17.5 -81q0 -58 -16 -155l-19 -108q-6 -30 -6 -67q0 -33 12 -49.5t42 -16.5q65 0 121.5 54.5t94.5 144t59 203.5l11 75l-71 4v10h112q55 0 90 4l4 -2l-86 -272q-20 -108 -20 -152q0 -69 47 -69q55 0 201 106l6 -6q-58 -43 -94.5 -68 t-81 -48t-70.5 -23q-88 0 -88 136q0 44 11 115q-46 -116 -111.5 -183.5t-143.5 -67.5q-57 0 -105.5 35t-48.5 92q0 28 34 145q43 153 43 186q0 42 -39 42q-27 0 -80 -29zM218 843l81 60q11 8 25 8q18 0 29 -14l128 -210l-20 -15q-60 76 -115.5 116t-123.5 50z" />
<glyph unicode="&#xfa;" horiz-adv-x="796" d="M25 471q84 59 127 59q38 0 55.5 -22t17.5 -81q0 -58 -16 -155l-19 -108q-6 -30 -6 -67q0 -33 12 -49.5t42 -16.5q65 0 121.5 54.5t94.5 144t59 203.5l11 75l-71 4v10h112q55 0 90 4l4 -2l-86 -272q-20 -108 -20 -152q0 -69 47 -69q55 0 201 106l6 -6q-58 -43 -94.5 -68 t-81 -48t-70.5 -23q-88 0 -88 136q0 44 11 115q-46 -116 -111.5 -183.5t-143.5 -67.5q-57 0 -105.5 35t-48.5 92q0 28 34 145q43 153 43 186q0 42 -39 42q-27 0 -80 -29zM351 692l146 207q11 14 29 14q13 0 25 -9l76 -68l-5 -5q-149 -19 -254 -156z" />
<glyph unicode="&#xfb;" horiz-adv-x="796" d="M25 471q84 59 127 59q38 0 55.5 -22t17.5 -81q0 -58 -16 -155l-19 -108q-6 -30 -6 -67q0 -33 12 -49.5t42 -16.5q65 0 121.5 54.5t94.5 144t59 203.5l11 75l-71 4v10h112q55 0 90 4l4 -2l-86 -272q-20 -108 -20 -152q0 -69 47 -69q55 0 201 106l6 -6q-58 -43 -94.5 -68 t-81 -48t-70.5 -23q-88 0 -88 136q0 44 11 115q-46 -116 -111.5 -183.5t-143.5 -67.5q-57 0 -105.5 35t-48.5 92q0 28 34 145q43 153 43 186q0 42 -39 42q-27 0 -80 -29zM216 736l198 159h40l197 -159l-26 -30l-190 168h-2l-190 -168z" />
<glyph unicode="&#xfc;" horiz-adv-x="796" d="M25 471q84 59 127 59q38 0 55.5 -22t17.5 -81q0 -58 -16 -155l-19 -108q-6 -30 -6 -67q0 -33 12 -49.5t42 -16.5q65 0 121.5 54.5t94.5 144t59 203.5l11 75l-71 4v10h112q55 0 90 4l4 -2l-86 -272q-20 -108 -20 -152q0 -69 47 -69q55 0 201 106l6 -6q-58 -43 -94.5 -68 t-81 -48t-70.5 -23q-88 0 -88 136q0 44 11 115q-46 -116 -111.5 -183.5t-143.5 -67.5q-57 0 -105.5 35t-48.5 92q0 28 34 145q43 153 43 186q0 42 -39 42q-27 0 -80 -29zM199 729l6 45q9 72 57 72h82l-12 -75q-2 -17 -18 -29.5t-37 -12.5h-78zM500 729l6 45q9 72 57 72h82 l-12 -75q-2 -17 -17.5 -29.5t-36.5 -12.5h-79z" />
<glyph unicode="&#xfd;" horiz-adv-x="755" d="M-705 -495q0 137 123.5 235t298.5 98l-12 -77q-158 0 -270.5 -74.5t-112.5 -179.5q0 -155 152 -265t366 -110q219 0 383.5 138.5t198.5 352.5q11 59 31 255q26 255 47 351q-54 -108 -127.5 -172.5t-149.5 -64.5q-54 0 -103.5 36t-49.5 89q0 72 46 192q40 102 40 140 q0 18 -11 30.5t-26 12.5q-23 0 -86 -29l-6 8q84 59 116 59q35 0 60.5 -19.5t25.5 -47.5q0 -37 -22 -142q-29 -135 -29 -192q0 -94 51 -94q92 0 176.5 96t124.5 244l10.5 56t12.5 65l-70 4v10h111q35 0 57 14.5t49 46.5l5 -2l-119 -346q-11 -65 -29 -277q-21 -240 -35 -323 q-38 -231 -232.5 -377.5t-455.5 -146.5q-147 0 -271 54.5t-196 148t-72 203.5zM324 692l146 207q11 14 29 14q13 0 25 -9l76 -68l-5 -5q-149 -19 -254 -156z" />
<glyph unicode="&#xfe;" horiz-adv-x="720" d="M-41 -600q13 33 104 596l115 1024l-127 4v10h121q38 0 84 30t61 58l5 -2l-87 -639q4 1 9 2.5t6 1.5q119 45 190 45q99 0 160.5 -59.5t61.5 -155.5q0 -131 -88 -223t-212 -92q-56 0 -99.5 25.5t-67.5 70.5l28 29q9 -44 48.5 -73t95.5 -29q75 0 128.5 83t53.5 201 q0 87 -34.5 141t-90.5 54q-64 0 -193 -49l-79 -457q-18 -96 -47.5 -317.5t-34.5 -272.5z" />
<glyph unicode="&#xff;" horiz-adv-x="755" d="M-705 -495q0 137 123.5 235t298.5 98l-12 -77q-158 0 -270.5 -74.5t-112.5 -179.5q0 -155 152 -265t366 -110q219 0 383.5 138.5t198.5 352.5q11 59 31 255q26 255 47 351q-54 -108 -127.5 -172.5t-149.5 -64.5q-54 0 -103.5 36t-49.5 89q0 72 46 192q40 102 40 140 q0 18 -11 30.5t-26 12.5q-23 0 -86 -29l-6 8q84 59 116 59q35 0 60.5 -19.5t25.5 -47.5q0 -37 -22 -142q-29 -135 -29 -192q0 -94 51 -94q92 0 176.5 96t124.5 244l10.5 56t12.5 65l-70 4v10h111q35 0 57 14.5t49 46.5l5 -2l-119 -346q-11 -65 -29 -277q-21 -240 -35 -323 q-38 -231 -232.5 -377.5t-455.5 -146.5q-147 0 -271 54.5t-196 148t-72 203.5zM172 729l7 45q9 72 56 72h82l-12 -75q-2 -17 -17.5 -29.5t-36.5 -12.5h-79zM474 729l6 45q9 72 56 72h82l-12 -75q-2 -17 -17.5 -29.5t-36.5 -12.5h-78z" />
<glyph unicode="&#x152;" horiz-adv-x="1423" d="M89 466q0 291 138 470.5t357 179.5q44 0 157.5 -5t196.5 -5h66l390 19l-40 -247h-15l17 174l-358 25h-96l-1 -4l41 -6l-69 -410h29l203 10l36 155h14q-9 -96 -21 -182q-11 -86 -32 -201h-15l11 174l-160 16h-70l-46 -273q-29 -200 -37 -327h127l365 25l32 174h14 l-30 -257l-27 2l-5 9l-352 18h-127q-59 0 -176 -5t-160 -5q-97 0 -179 63.5t-130 173.5t-48 239zM221 442q0 -172 73.5 -293.5t176.5 -121.5q110 0 200 4q19 84 52 323l61 719l-225 6q-152 0 -245 -175t-93 -462z" />
<glyph unicode="&#x153;" horiz-adv-x="1105" d="M49 207q0 91 74 201q12 0 31.5 -13.5t19.5 -25.5q-20 -50 -20 -154q0 -86 51 -140.5t123 -54.5q80 0 140 85t60 202q0 88 -44.5 146.5t-110.5 58.5q-94 0 -94 -129q0 -6 -12 -11t-23 -5v28q0 68 42 107t109 39t123 -37t83 -96q41 57 102.5 89.5t136.5 32.5 q84 0 146.5 -38.5t62.5 -92.5q0 -58 -58 -105t-152 -73t-204 -28q4 -70 54.5 -117t119.5 -47q126 0 256 108l6 -6q-79 -68 -142.5 -103.5t-137.5 -35.5q-77 0 -140 36t-92 95q-44 -60 -110.5 -95.5t-143.5 -35.5q-108 0 -182 60t-74 155zM633 205q134 3 217.5 55t83.5 131 q0 45 -35 78t-82 33q-85 0 -134.5 -78.5t-49.5 -208.5v-10z" />
<glyph unicode="&#x178;" horiz-adv-x="958" d="M72 1021q41 34 99 64.5t83 30.5q14 0 28 -13.5t30 -44.5t29 -60t31.5 -82t30 -86.5t31.5 -96.5q77 -237 116 -314h2q28 41 84 139t99 196l143 331l-142 7v14h137q46 0 92.5 22.5t70.5 57.5l6 -2l-259 -441q-181 -308 -194 -366q-37 -267 -44 -377l-134 -2q28 89 70 388 q-39 65 -144 333q-30 79 -49 125.5t-43 100t-41 78.5t-30 25q-35 0 -95 -39zM377 1251l6 46q9 71 57 71h82l-12 -75q-2 -17 -17.5 -29.5t-36.5 -12.5h-79zM678 1251l6 46q9 71 57 71h82l-12 -75q-2 -17 -17.5 -29.5t-36.5 -12.5h-79z" />
<glyph unicode="&#x2c6;" horiz-adv-x="518" d="M165 879l198 159h40l197 -159l-26 -30l-190 168h-2l-190 -168z" />
<glyph unicode="&#x2dc;" horiz-adv-x="606" d="M183 854q26 37 45 59t47 42t55 20q45 0 112 -46q56 -40 95 -40q62 0 120 113l25 -13q-69 -135 -149 -135q-45 0 -113 45q-58 39 -90 39q-50 0 -124 -101z" />
<glyph unicode="&#x2000;" horiz-adv-x="720" />
<glyph unicode="&#x2001;" horiz-adv-x="1440" />
<glyph unicode="&#x2002;" horiz-adv-x="720" />
<glyph unicode="&#x2003;" horiz-adv-x="1440" />
<glyph unicode="&#x2004;" horiz-adv-x="480" />
<glyph unicode="&#x2005;" horiz-adv-x="360" />
<glyph unicode="&#x2006;" horiz-adv-x="240" />
<glyph unicode="&#x2007;" horiz-adv-x="240" />
<glyph unicode="&#x2008;" horiz-adv-x="180" />
<glyph unicode="&#x2009;" horiz-adv-x="288" />
<glyph unicode="&#x200a;" horiz-adv-x="80" />
<glyph unicode="&#x2010;" horiz-adv-x="774" d="M193 463l6 37h522l-6 -37h-522z" />
<glyph unicode="&#x2011;" horiz-adv-x="774" d="M193 463l6 37h522l-6 -37h-522z" />
<glyph unicode="&#x2012;" horiz-adv-x="774" d="M193 463l6 37h522l-6 -37h-522z" />
<glyph unicode="&#x2013;" horiz-adv-x="860" d="M195 504l6 37h612l-6 -37h-612z" />
<glyph unicode="&#x2014;" horiz-adv-x="1695" d="M195 504l6 37h1448l-7 -37h-1447z" />
<glyph unicode="&#x2018;" horiz-adv-x="317" d="M188 852l13 66q18 94 82 239h22q-35 -144 -35 -203h60l-6 -39q-9 -63 -60 -63h-76z" />
<glyph unicode="&#x2019;" horiz-adv-x="284" d="M164 973l6 39q9 63 59 63h76l-12 -65q-18 -96 -82 -240h-23q35 144 35 203h-59z" />
<glyph unicode="&#x201a;" horiz-adv-x="284" d="M31 0l6 39q9 63 59 63h76l-12 -65q-18 -96 -82 -240h-23q35 144 35 203h-59z" />
<glyph unicode="&#x201c;" horiz-adv-x="522" d="M188 852l13 66q18 94 82 239h22q-35 -144 -35 -203h60l-6 -39q-9 -63 -60 -63h-76zM393 852l13 66q19 98 81 239h23q-35 -144 -35 -203h60l-7 -39q-9 -63 -59 -63h-76z" />
<glyph unicode="&#x201d;" horiz-adv-x="489" d="M164 969l6 39q9 63 59 63h76l-12 -65q-18 -96 -82 -240h-23q35 144 35 203h-59zM369 973l6 39q9 63 59 63h76l-12 -65q-18 -96 -82 -240h-23q35 144 35 203h-59z" />
<glyph unicode="&#x201e;" horiz-adv-x="489" d="M31 0l6 39q9 63 59 63h76l-12 -65q-18 -96 -82 -240h-23q35 144 35 203h-59zM236 0l6 39q9 63 59 63h76l-12 -65q-18 -96 -82 -240h-23q35 144 35 203h-59z" />
<glyph unicode="&#x2022;" horiz-adv-x="481" d="M186 504q0 52 36 88.5t89 36.5t89 -36.5t36 -88.5t-36 -88.5t-89 -36.5t-89 36.5t-36 88.5z" />
<glyph unicode="&#x2026;" horiz-adv-x="808" d="M61 0l9 39q9 63 59 63h76l-12 -65q-3 -15 -20 -26t-38 -11h-74zM317 0l9 39q9 63 59 63h76l-12 -65q-3 -15 -20 -26t-38 -11h-74zM573 0l9 39q9 63 59 63h76l-12 -65q-3 -15 -20 -26t-38 -11h-74z" />
<glyph unicode="&#x202f;" horiz-adv-x="288" />
<glyph unicode="&#x2039;" horiz-adv-x="366" d="M119 350q0 15 44 62.5t84 83.5l57 49l22 -25q-41 -33 -87 -90t-54 -78q4 -24 32 -79t59 -88l-26 -26l-44 52q-87 108 -87 139z" />
<glyph unicode="&#x203a;" horiz-adv-x="366" d="M140 185q39 31 81 84.5t59 82.5q-9 31 -35 84t-56 84l26 25l41 -49q92 -114 92 -142l-1 -1l-1 -1q-2 -13 -41.5 -56t-86.5 -85l-57 -52z" />
<glyph unicode="&#x205f;" horiz-adv-x="360" />
<glyph unicode="&#x20ac;" horiz-adv-x="937" d="M51 477l8 29h176q2 63 10 115h-173l8 28h170q40 211 170.5 339t299.5 128q26 0 87.5 -13t74.5 -13q42 0 63.5 21.5t35.5 62.5l8 -3l-64 -213l-6 3q-39 36 -111.5 77t-113.5 41q-87 0 -155 -57.5t-108.5 -152t-59.5 -220.5h368l-8 -28h-365q-6 -46 -8 -115h336l-8 -29 h-329q0 -2 -0.5 -7.5t-0.5 -8.5q0 -195 68.5 -309.5t188.5 -114.5q150 0 295 145l7 -8q-43 -43 -72 -69t-72 -56t-87 -44.5t-92 -14.5q-154 0 -254 138.5t-103 348.5h-184z" />
<glyph unicode="&#x25fc;" horiz-adv-x="583" d="M0 0v584h584v-584h-584z" />
</font>
</defs>
</svg>
